<?xml version="1.0" standalone="no"?>
<!DOCTYPE svg PUBLIC "-//W3C//DTD SVG 20010904//EN"
 "http://www.w3.org/TR/2001/REC-SVG-20010904/DTD/svg10.dtd">
<svg version="1.0" xmlns="http://www.w3.org/2000/svg"
 width="960.000000pt" height="960.000000pt" viewBox="0 0 960.000000 960.000000"
 preserveAspectRatio="xMidYMid meet">
<metadata>
Created by potrace 1.11, written by Peter Selinger 2001-2013
</metadata>
<g transform="translate(0.000000,960.000000) scale(0.100000,-0.100000)"
fill="#000000" stroke="none">
<path d="M2210 7381 c-36 -9 -69 -18 -75 -19 -39 -8 -155 -52 -235 -90 -92
-44 -232 -128 -238 -144 -2 -5 -8 -8 -13 -8 -24 0 -223 -196 -296 -290 -98
-127 -199 -314 -243 -452 -12 -38 -23 -68 -24 -68 -2 0 -3 219 -4 488 0 268
-1 493 -1 500 -1 9 -116 12 -541 12 l-540 0 2 -2522 3 -2523 583 0 582 0 1 25
c0 14 2 711 3 1550 2 839 6 1536 9 1550 3 14 8 43 11 65 13 95 19 126 47 222
34 122 100 264 160 345 25 35 131 143 164 168 139 104 307 163 525 186 296 30
513 -22 695 -167 80 -63 94 -80 153 -191 67 -124 116 -286 138 -453 9 -66 11
-236 3 -241 -4 -2 -3 -22 1 -44 4 -22 4 -42 0 -45 -4 -2 -6 -17 -3 -32 5 -42
5 -132 -2 -143 -3 -5 -1 -11 5 -15 6 -4 8 -10 5 -15 -5 -9 -9 -124 -5 -145 1
-5 2 -14 1 -19 -3 -13 -3 -129 -1 -141 1 -5 2 -14 1 -19 -3 -13 -3 -129 -1
-141 1 -5 1 -21 0 -35 -1 -14 -3 -34 -4 -45 -1 -11 1 -32 5 -47 4 -14 5 -29 2
-32 -7 -6 -5 -265 2 -276 3 -5 1 -11 -3 -14 -9 -5 -7 -66 2 -92 2 -6 1 -17 -4
-24 -4 -7 -4 -25 0 -41 5 -15 6 -30 3 -33 -6 -5 -7 -118 -2 -142 1 -5 1 -13 0
-19 -5 -25 -1 -267 4 -275 3 -5 1 -11 -3 -14 -9 -5 -7 -66 2 -92 2 -6 1 -17
-4 -24 -4 -7 -4 -25 0 -41 5 -15 6 -30 3 -33 -6 -5 -7 -118 -2 -142 1 -5 1
-13 0 -19 -5 -25 -1 -267 4 -275 3 -5 1 -11 -3 -14 -9 -5 -7 -66 2 -92 2 -6 1
-17 -4 -24 -4 -7 -4 -25 0 -41 5 -15 6 -30 3 -33 -6 -5 -7 -118 -2 -142 1 -5
1 -13 0 -19 -4 -24 -2 -205 2 -212 3 -5 261 -8 574 -8 l568 0 1 1530 c1 1413
4 1605 19 1675 3 14 8 41 11 60 11 64 72 237 115 322 141 282 345 442 654 515
73 17 330 23 445 10 66 -7 174 -39 250 -74 67 -31 184 -114 225 -160 48 -54
152 -272 155 -325 1 -4 7 -25 14 -45 39 -110 39 -133 40 -1848 l1 -1660 568 0
c313 0 570 3 573 6 5 8 5 3653 0 3714 -3 28 -8 70 -11 95 -4 25 -8 54 -10 65
-2 11 -8 38 -14 60 -6 22 -12 51 -15 65 -2 14 -5 25 -6 25 -2 0 -4 11 -13 50
-11 47 -90 239 -125 305 -73 135 -99 177 -189 299 -10 13 -20 27 -23 30 -16
22 -155 131 -224 176 -86 55 -232 135 -248 135 -5 0 -27 9 -49 20 -35 16 -94
35 -259 80 -21 6 -198 9 -430 7 l-395 -2 -105 -33 c-165 -52 -371 -158 -479
-247 -127 -104 -202 -181 -280 -284 -62 -82 -139 -202 -143 -223 -2 -7 -6 -15
-9 -18 -11 -8 -89 -195 -95 -229 -9 -46 -22 -47 -30 -4 -19 100 -130 364 -174
411 -9 9 -19 24 -22 33 -19 50 -147 188 -283 304 -74 63 -346 203 -429 220
-11 3 -47 13 -80 24 -142 47 -175 50 -536 50 -299 0 -354 -2 -410 -18z"/>
<path d="M8638 3745 c-2 -2 -19 -6 -40 -9 -132 -21 -294 -121 -380 -236 -56
-75 -124 -233 -143 -330 -11 -59 -14 -302 -4 -355 5 -27 10 -59 12 -70 13 -74
78 -223 131 -300 63 -90 190 -179 316 -222 58 -19 86 -22 282 -23 245 -1 292
7 415 67 175 85 282 225 338 443 9 36 19 74 22 85 12 44 10 292 -2 350 -59
286 -169 444 -377 538 -107 49 -169 59 -375 62 -106 1 -194 1 -195 0z"/>
</g>
</svg>
