<svg width="34" height="34" viewBox="0 0 34 34" fill="none" xmlns="http://www.w3.org/2000/svg">
<g clip-path="url(#clip0)">
<path d="M24.3954 15.9098L16.2636 24.0415C14.7009 25.6042 12.1695 25.6042 10.6068 24.0415C9.04407 22.4788 9.04407 19.9474 10.6068 18.3847L19.4456 9.54583C20.4214 8.57002 22.0053 8.57002 22.9811 9.54583C23.957 10.5216 23.957 12.1056 22.9811 13.0814L15.5565 20.506C15.1676 20.8949 14.5312 20.8949 14.1423 20.506C13.7534 20.1171 13.7534 19.4807 14.1423 19.0918L20.8598 12.3743L19.7992 11.3136L13.0817 18.0311C12.1058 19.0069 12.1058 20.5908 13.0817 21.5666C14.0575 22.5424 15.6414 22.5424 16.6172 21.5666L24.0418 14.142C25.6045 12.5793 25.6045 10.0479 24.0418 8.48517C22.4791 6.92246 19.9477 6.92246 18.385 8.48517L9.54612 17.324C7.39651 19.4736 7.39651 22.9526 9.54612 25.1022C11.6957 27.2518 15.1747 27.2518 17.3243 25.1022L25.456 16.9704L24.3954 15.9098Z" fill="#27AE60"/>
</g>
<defs>
<clipPath id="clip0">
<rect width="24" height="24" fill="white" transform="translate(16.9707) rotate(45)"/>
</clipPath>
</defs>
</svg>
