<svg width="146" height="187" viewBox="0 0 146 187" fill="none" xmlns="http://www.w3.org/2000/svg">
<path fill-rule="evenodd" clip-rule="evenodd" d="M96.34 27.909C98.8376 24.9773 100.528 21.3845 100.246 17.3586C99.4317 5.75891 83.2845 8.31069 80.1435 14.1652C77.0026 20.0197 77.3758 34.8702 81.4352 35.9166C83.0541 36.3339 86.5028 35.3117 90.0128 33.1961L87.8097 48.7825H100.818L96.34 27.909Z" fill="#B28B67"/>
<path fill-rule="evenodd" clip-rule="evenodd" d="M74.3794 6.04947C74.6487 5.10257 75.3733 4.29184 76.3498 4.05131C76.5866 3.99297 76.8311 3.96941 77.0748 3.97923C77.1622 3.98272 77.1867 4.00792 77.2276 3.9468C77.2579 3.90149 77.2585 3.79079 77.271 3.73753C77.3098 3.57194 77.3583 3.40841 77.4182 3.24912C77.6225 2.70582 77.9659 2.22498 78.3798 1.81994C79.154 1.06217 80.2001 0.539188 81.2869 0.444573C81.8817 0.392817 82.4723 0.48946 83.0346 0.682961C83.3258 0.783128 83.6081 0.907857 83.883 1.04576C83.9658 1.08726 84.2344 1.29055 84.3175 1.27738C84.4092 1.26286 84.5937 1.03483 84.6683 0.97759C85.5905 0.270046 86.7293 -0.00813787 87.878 0.000180712C89.1745 0.00994494 90.423 0.0747299 91.5043 0.865106C91.7332 1.03244 91.9512 1.21566 92.1588 1.40855C92.2681 1.51011 92.3739 1.61547 92.4749 1.72521C92.5358 1.79142 92.5952 1.85913 92.6523 1.92865C92.7492 2.04665 92.7336 2.08541 92.8693 2.00308C93.3897 1.68691 93.9927 1.53905 94.6001 1.61369C94.9608 1.65804 95.3117 1.76633 95.6449 1.90886C95.7584 1.95737 96.021 2.15091 96.1419 2.15279C96.2618 2.15465 96.5207 1.97524 96.6443 1.92964C97.3117 1.68328 98.031 1.62256 98.7324 1.73639C99.456 1.85386 100.167 2.14254 100.78 2.54147C101.075 2.73337 101.332 2.94598 101.539 3.23132C101.628 3.35452 101.708 3.48484 101.81 3.59907C101.869 3.66595 101.986 3.73458 102.018 3.81923C101.999 3.76854 102.809 3.45615 102.886 3.43618C103.293 3.32978 103.708 3.35135 104.107 3.48263C104.857 3.72949 105.502 4.28308 106.032 4.85066C106.304 5.14219 106.543 5.46444 106.745 5.80777C106.842 5.97222 106.931 6.14138 107.012 6.31412C107.051 6.39781 107.077 6.5025 107.129 6.57789C107.196 6.67503 107.24 6.67688 107.361 6.71924C107.975 6.93431 108.535 7.29836 108.961 7.79026C109.392 8.28793 109.672 8.90079 109.789 9.54618C109.796 9.5842 109.8 9.74174 109.822 9.76232C109.853 9.79065 109.976 9.77812 110.023 9.7836C110.185 9.80258 110.345 9.8308 110.504 9.86832C110.796 9.93745 111.08 10.0392 111.349 10.1722C112.397 10.6909 113.147 11.6633 113.514 12.7574C113.899 13.9057 113.892 15.2212 113.432 16.3481C113.358 16.5301 113.269 16.7067 113.165 16.8739C113.102 16.9764 113.081 16.9767 113.122 17.0843C113.169 17.2041 113.253 17.3204 113.308 17.4374C113.486 17.8193 113.612 18.2243 113.69 18.6379C113.82 19.3164 113.884 20.0294 113.756 20.7131C113.697 21.0305 113.594 21.3408 113.436 21.6236C113.356 21.7677 113.261 21.9045 113.155 22.0309C113.1 22.0966 113.041 22.1593 112.98 22.2194C112.945 22.2537 112.899 22.2838 112.869 22.3221C112.797 22.4156 112.781 22.3387 112.819 22.476C112.871 22.6679 112.99 22.8572 113.063 23.044C113.138 23.2364 113.206 23.4315 113.268 23.6285C113.393 24.0274 113.5 24.4335 113.566 24.8466C113.694 25.6397 113.671 26.4848 113.296 27.2127C113.136 27.524 112.906 27.7972 112.627 28.0096C112.49 28.1136 112.342 28.2032 112.187 28.2767C112.107 28.3146 112.005 28.3309 111.969 28.408C111.93 28.4909 111.988 28.6556 112.001 28.7484C112.116 29.555 112.174 30.402 111.934 31.1925C111.714 31.9206 111.227 32.5635 110.596 32.9891C109.371 33.8148 107.72 33.7682 106.433 33.1072C106.098 32.9349 105.784 32.721 105.504 32.4687C104.791 33.4283 103.324 33.398 102.282 33.1245C100.984 32.7839 99.9425 31.8812 99.3424 30.6953C98.5218 31.6943 96.7997 31.3702 96.2307 30.2865C96.0914 30.0212 96.0088 29.7289 95.9681 29.4331C95.9467 29.2776 95.9604 29.1207 95.9443 28.9663C95.9238 28.7697 95.7924 28.5786 95.7169 28.3884C95.5699 28.0182 95.4786 27.6358 95.4747 27.2365C95.4726 27.028 95.499 26.8248 95.5189 26.618C95.5367 26.4318 95.4851 26.2584 95.4557 26.0746C95.7886 26.1294 96.1942 26.0397 96.5079 25.9431C96.8157 25.8484 97.104 25.5989 97.3212 25.3711C97.8256 24.842 98.1338 24.1484 98.3445 23.4581C98.8072 21.943 98.6175 20.1252 97.0936 19.2936C96.3837 18.9063 94.2568 18.9076 93.4113 19.099C92.5222 19.3003 91.5143 21.262 91.4647 21.4464C91.434 21.5605 91.4495 21.7018 91.3446 21.7778C91.1142 21.945 90.7343 21.6549 90.5643 21.5117C90.2711 21.2645 90.0619 20.9357 89.8807 20.6024C89.486 19.8762 89.1678 19.0975 88.943 18.3025C88.7697 17.6896 88.6589 17.0576 88.4324 16.4603C88.207 15.866 87.8517 15.3348 87.2992 14.9981C86.6982 14.6319 86.0094 14.439 85.3496 14.2088C84.6956 13.9807 84.053 13.702 83.546 13.218C83.4346 13.1115 83.3263 12.9984 83.2366 12.8731C83.1658 12.7742 83.0958 12.5848 82.9879 12.5221C82.8201 12.4246 82.5753 12.6783 82.4302 12.7704C81.7145 13.225 81.1174 13.8589 80.6358 14.5515C80.1569 15.2403 79.7639 15.903 79.4445 16.6722C79.2077 17.2426 79.0599 17.9731 78.6433 18.4406C78.4573 18.6493 77.0748 18.7756 76.627 18.5934C76.1792 18.4112 75.6774 17.938 75.5271 17.6414C75.3732 17.3379 75.3364 17.0045 75.4022 16.6722C75.4408 16.4767 75.5198 16.2941 75.563 16.1021C75.5994 15.9408 75.6324 15.7883 75.7109 15.6406C75.8597 15.3606 76.1139 15.1593 76.4204 15.0751C76.1014 14.781 75.8371 14.4291 75.6542 14.0358C75.4641 13.6272 75.303 13.1302 75.2573 12.6817C75.2202 12.3174 75.2775 11.94 75.4769 11.6269C75.6861 11.2985 76.0568 11.0843 76.3774 10.8794C75.8876 10.4962 75.4684 10.0301 75.1238 9.51411C74.4535 8.51065 74.039 7.24578 74.3794 6.04947Z" fill="#191847"/>
<path fill-rule="evenodd" clip-rule="evenodd" d="M137.133 116.536H74.8C70.0104 116.536 66.1276 120.418 66.1276 125.208V175.075C66.1276 179.864 70.0104 183.747 74.8 183.747H137.133C141.923 183.747 145.806 179.864 145.806 175.075V125.208C145.806 120.418 141.923 116.536 137.133 116.536ZM128.461 131.712C129.658 131.712 130.629 132.683 130.629 133.881V166.402C130.629 167.6 129.658 168.57 128.461 168.57H83.4725C82.2751 168.57 81.3044 167.6 81.3044 166.402V133.881C81.3044 132.683 82.2751 131.712 83.4725 131.712H128.461Z" fill="#C5CFD6"/>
<path fill-rule="evenodd" clip-rule="evenodd" d="M27.3673 181.937C34.3122 166.566 39.3347 153.181 41.3507 146.12C44.8026 134.028 47.4286 123.389 48.0923 119.415C49.675 109.94 35.9172 109.389 34.0988 114.098C31.3464 121.225 26.5414 144.641 20.7679 180.011L27.3673 181.937ZM107.924 133.698C101.552 131.18 79.238 123.297 68.4759 121.068C65.3833 120.427 62.3858 119.832 59.5677 119.294C51.1912 117.695 46.8515 132.806 54.919 133.967C75.0104 136.859 103.493 139.845 105.931 140.18C109.347 140.649 111.929 135.281 107.924 133.698Z" fill="#B28B67"/>
<path fill-rule="evenodd" clip-rule="evenodd" d="M54.4267 115.135L88.8928 97.59V93.7705H84.7939C51.4495 102.267 34.4105 107.712 33.677 110.106C33.6691 110.132 33.6619 110.158 33.6553 110.183C33.6385 110.205 33.622 110.228 33.6058 110.25C26.9977 119.338 23.0401 163.707 21.7411 167.029L34.4038 168.918C39.2477 150.956 54.745 138.444 54.3333 116.931C54.4445 116.3 54.4725 115.701 54.4267 115.135Z" fill="#1F28CF"/>
<path fill-rule="evenodd" clip-rule="evenodd" d="M86.0292 125.555C89.1828 124.924 92.0869 124.361 94.5719 123.925C110.623 121.109 115.304 112.517 112.536 93.7705H82.9621C78.1311 95.1583 53.0246 105.687 39.9982 111.287C31.3767 114.993 34.0945 128.354 38.9768 131.832C39.0034 132.045 39.0912 132.19 39.2477 132.255C65.5114 143.14 86.2884 137.428 93.2291 139.253L96.4395 129.126L86.0292 125.555Z" fill="#2B44FF"/>
<path fill-rule="evenodd" clip-rule="evenodd" d="M105.746 132.088C107.466 132.253 108.688 132.511 109.41 132.864C110.289 133.292 111.499 134.064 113.042 135.179C112.545 136.198 108.078 145.357 99.6404 162.656C96.9315 162.219 95.8581 161.185 96.4203 159.555C96.9824 157.925 97.4357 156.564 97.7803 155.472L98.3158 139.924C98.3261 139.625 98.577 139.391 98.8762 139.401C98.8813 139.401 98.8864 139.401 98.8915 139.402L101.283 139.552C102.642 138.452 103.539 137.457 103.973 136.566C104.326 135.843 104.521 134.701 104.559 133.142L104.559 133.142C104.573 132.543 105.07 132.069 105.668 132.084C105.694 132.084 105.72 132.086 105.746 132.088Z" fill="#E4E4E4"/>
<path fill-rule="evenodd" clip-rule="evenodd" d="M30.5281 179.087C31.1345 180.706 31.4377 181.917 31.4377 182.721C31.4377 183.698 31.2749 185.124 30.9492 187C29.8154 187 19.6249 187 0.377802 187C-0.416641 184.373 0.0419559 182.955 1.7536 182.746C3.46524 182.536 4.88713 182.347 6.01926 182.179L20.2286 175.844C20.502 175.722 20.8225 175.845 20.9443 176.118C20.9464 176.123 20.9484 176.128 20.9504 176.132L21.8638 178.348C23.4483 179.087 24.7359 179.457 25.7266 179.457C26.5314 179.457 27.643 179.132 29.0612 178.482L29.0612 178.482C29.6055 178.232 30.2489 178.471 30.4984 179.016C30.5092 179.039 30.5191 179.063 30.5281 179.087Z" fill="#E4E4E4"/>
<path fill-rule="evenodd" clip-rule="evenodd" d="M57.4303 85.1641L42.0757 100.143C37.6081 102.049 33.9475 104.153 31.094 106.456C30.4523 107.23 29.7537 108.713 32.7729 108.049C35.7921 107.386 38.9978 106.823 39.5652 107.805C40.1327 108.787 38.4606 110.292 39.5094 111.577C40.2085 112.433 42.5599 109.708 46.5634 103.402L62.5301 93.9883L57.4303 85.1641ZM125.583 87.2766L114.256 87.3211C121.25 109.899 125.026 121.878 125.583 123.26C126.837 126.368 124.183 131.102 123.048 133.646C126.745 135.3 126.351 129.174 131.014 131.343C135.271 133.324 138.508 136.912 143.426 133.877C144.031 133.504 144.693 132.1 143.092 131.002C139.104 128.267 133.357 123.481 132.581 121.906C131.522 119.758 129.189 108.215 125.583 87.2766Z" fill="#B28B67"/>
<path fill-rule="evenodd" clip-rule="evenodd" d="M93.3937 39.7477L88.7067 38.9438C80.6373 59.102 66.5488 77.4183 46.4413 93.8927L61.6355 112.352C81.7406 88.8949 94.1335 64.6934 93.3937 39.7477Z" fill="#191847"/>
<path fill-rule="evenodd" clip-rule="evenodd" d="M113.826 98.6488H72.0894C81.7588 75.1383 86.5934 55.1665 86.5934 38.7332L99.1832 36.8574C109.078 52.7705 111.872 72.3628 113.826 98.6488Z" fill="#DDE3E9"/>
<path fill-rule="evenodd" clip-rule="evenodd" d="M99.4497 36.8663C99.448 36.8634 99.4464 36.8604 99.4447 36.8574H98.6229C97.6395 36.8913 96.1417 36.9523 94.1295 37.0405L91.0874 45.7342C90.7656 56.3339 88.8864 77.6951 85.4498 109.818H112.809C112.737 112.036 112.619 114.276 112.454 116.536H132.797C129.754 82.2058 118.641 55.6463 99.4597 36.8574L99.4497 36.8663V36.8663Z" fill="#2F3676"/>
<path fill-rule="evenodd" clip-rule="evenodd" d="M111.001 81.4302C110.223 95.2599 108.273 104.794 105.153 110.031H112.801C113.136 100.081 112.536 90.5475 111.001 81.4302V81.4302Z" fill="black" fill-opacity="0.1"/>
<path fill-rule="evenodd" clip-rule="evenodd" d="M106.719 93.2287L93.2281 86.957V93.2287H106.719Z" fill="white" fill-opacity="0.2"/>
</svg>
