<svg width="86" height="179" viewBox="0 0 86 179" fill="none" xmlns="http://www.w3.org/2000/svg">
<path opacity="0.2" fill-rule="evenodd" clip-rule="evenodd" d="M64.4426 3.69104C65.5189 3.15731 66.9538 3.77632 66.3553 5.1873C65.7141 6.69824 63.3434 6.71691 62.0046 6.68696C62.1386 6.67994 62.5701 5.29438 62.7178 5.08501C63.1535 4.46737 63.7808 4.01976 64.4426 3.69104ZM52.049 31.2215C51.6688 31.5466 52.0181 31.252 52.049 31.2215V31.2215ZM65.6936 10.7061C66.3372 11.1933 66.3674 12.0539 65.8412 12.6367C65.2145 13.3305 64.071 13.3058 63.2174 13.2387C62.8312 13.2082 60.7695 13.0458 61.2584 12.7114C61.2208 12.7255 61.1422 12.7596 61.0582 12.8061C61.0129 12.9697 60.9653 13.1328 60.9158 13.2951C60.9279 13.3021 60.9382 13.3097 60.9512 13.3167C60.9371 13.3106 60.9273 13.304 60.9149 13.2978C60.4183 14.9205 59.7117 16.4656 58.7868 17.9113C59.1326 17.7763 59.4908 17.6741 59.8541 17.6284C60.9298 17.4932 63.1922 18.3199 61.9882 19.7388C60.8339 21.0992 59.0385 19.6413 57.7293 19.4408C56.4583 21.1968 55.0572 22.8798 53.5889 24.5067C53.6788 24.5345 53.7577 24.5926 53.8029 24.683C54.3918 24.3869 55.0054 23.9635 55.5503 23.8486C56.3366 23.6832 57.9488 23.5823 58.5427 24.2789C59.2731 25.1355 58.4893 25.832 57.6258 25.9968C56.3736 26.2358 54.7349 25.6308 53.5303 25.2221C53.3925 25.2463 53.2421 25.2064 53.1522 25.0973C53.1256 25.0887 53.099 25.0802 53.0731 25.0719C51.5862 26.6908 50.0425 28.2563 48.5082 29.7875C48.5245 29.7867 48.5408 29.7857 48.5579 29.7848C48.958 29.5248 49.3872 29.3114 49.8524 29.1995C50.9284 28.9392 52.1943 28.9373 53.067 29.7078C53.9363 30.475 54.2437 31.8175 53.3435 32.6799C51.5417 34.4063 48.8902 30.4734 47.9818 30.3097C46.4227 31.8494 44.7741 33.2881 43.0996 34.6978C43.2897 34.6404 43.4847 34.5982 43.6862 34.5791C45.3275 34.4227 49.1788 36.4135 47.1636 38.3751C45.4075 40.0845 43.3776 36.7971 41.9636 35.6478C40.3857 36.9617 38.7993 38.2666 37.2573 39.6223C38.098 39.4008 38.9104 39.3678 39.8114 39.6371C40.7437 39.916 42.248 40.6126 41.6579 41.8597C41.0577 43.1279 39.2512 42.5519 38.3104 42.1498C37.7972 41.9305 36.7685 41.19 35.8651 40.8783C33.4045 43.1792 31.2729 45.7131 29.6586 48.6976C28.6508 50.5611 27.8857 52.5518 27.3468 54.5977C27.0029 55.9036 26.3254 58.097 26.4599 59.7963C25.8162 56.395 26.9854 52.3089 28.2441 49.2677C29.4014 46.4712 31.1326 44.0158 33.16 41.8055C32.6523 40.2911 28.3735 38.1087 30.9328 36.7002C32.2918 35.9555 33.6828 37.1894 33.9791 38.4968C34.1827 39.3952 33.8713 40.5243 33.541 41.3966C34.1788 40.7228 34.8417 40.0706 35.5249 39.4401C36.469 38.5686 37.4356 37.7224 38.4115 36.8869C36.8048 35.3921 35.2857 31.1174 37.4414 30.4171C40.6245 29.3858 39.0891 35.2186 38.8665 36.3117C38.8035 36.3154 38.7544 36.2966 38.7182 36.2562C38.7361 36.3563 38.7568 36.4633 38.7819 36.5712C40.6498 34.9804 42.5453 33.4208 44.3784 31.7919C44.2134 31.6712 43.9512 31.2096 43.7451 30.9639C43.2799 30.4101 42.8348 29.8316 42.5096 29.1837C41.996 28.1597 41.501 26.5263 42.8642 25.9231C44.3468 25.266 45.0502 27.1134 45.06 28.2156C45.0666 28.978 44.8566 29.7023 44.7471 30.4496C44.7128 30.6826 44.8437 31.733 44.5234 31.2813C44.5384 31.4479 44.5405 31.5686 44.533 31.6541C44.8621 31.3603 45.1887 31.0632 45.5132 30.764C45.4982 30.7262 45.487 30.6851 45.4845 30.6373C45.4673 30.3087 45.8013 30.182 46.0354 30.2781C46.4636 29.8751 46.8876 29.467 47.3041 29.0508C48.1868 28.1691 49.0822 27.2622 49.9715 26.336C49.7788 26.172 49.8556 25.9448 49.6753 25.7707C49.4954 25.597 49.1408 25.5011 48.9292 25.3398C48.3968 24.9338 47.9555 24.3421 47.6365 23.7598C47.1097 22.7976 46.4294 20.779 47.9699 20.3195C49.5578 19.8451 50.3626 21.7882 50.4641 23.0032C50.4838 23.2386 50.3048 25.3598 50.1681 26.1301C51.8137 24.4088 53.4322 22.623 54.8986 20.8062C54.4543 20.8023 53.1949 19.9013 52.9404 19.6554C52.3193 19.0557 51.3321 17.7302 52.4219 17.028C53.3909 16.4052 54.5845 17.306 54.9983 18.1818C55.0663 18.326 55.3057 19.6686 55.3241 20.2709C55.931 19.5005 56.5101 18.7256 57.0488 17.9481C57.408 17.4313 57.7438 16.9008 58.058 16.359C57.9824 16.3166 57.9114 16.2427 57.8443 16.1508C56.2288 15.88 54.1703 13.3847 56.0684 12.5151C56.9721 12.1017 57.9516 12.9537 58.3938 13.6515C58.4844 13.7942 58.6309 14.5121 58.7501 15.0783C59.6541 13.2836 60.3451 11.3837 60.8713 9.43585C60.7307 9.40134 60.6117 9.29501 60.5961 9.112C59.8119 8.66955 59.1927 8.3011 58.6456 7.44978C58.3057 6.921 57.6937 5.71282 58.6933 5.41872C59.9943 5.03606 60.8103 7.0032 60.9162 7.97227C60.9286 8.08475 60.928 8.41193 60.9235 8.71176C60.9687 8.70563 61.0143 8.7063 61.0591 8.71411C61.3584 7.50798 61.5975 6.28636 61.7878 5.06271C61.078 4.83677 60.9571 1.14431 61.43 0.618298C62.4872 -0.559506 63.2318 1.14073 63.1749 2.03957C63.1077 3.0994 62.6223 4.06369 62.0445 4.91956C61.9825 5.0102 62.0002 5.0058 61.9842 4.87959C61.9753 4.94198 61.9542 4.98803 61.9229 5.02139C61.9524 5.57924 62.0102 6.15035 61.9821 6.64401C61.9014 8.0577 61.7344 9.47968 61.4922 10.8753C61.4333 11.2147 61.3659 11.5513 61.2903 11.8851C61.8612 11.4033 62.6308 10.9752 62.9319 10.8413C63.7134 10.494 64.9178 10.119 65.6936 10.7061ZM26.3321 59.6621C26.3698 60.1164 26.4818 60.531 26.7024 60.8706C26.5405 60.4823 26.4191 60.078 26.3321 59.6621Z" fill="#C1DEE2"/>
<g opacity="0.5">
<path opacity="0.5" fill-rule="evenodd" clip-rule="evenodd" d="M54.6346 49.9809C55.9228 48.144 58.3134 43.479 60.1265 42.8227C61.2944 42.3999 60.9539 46.773 60.9683 47.6069C61.0245 50.8329 60.7104 54.0386 60.3225 57.2375C59.6238 63.0069 57.3389 68.1449 54.2051 73.0552C52.5925 75.5819 50.701 78.1392 48.0813 79.7157C46.8754 80.4417 45.4244 80.5633 44.2335 81.1888C42.8466 81.917 43.6019 81.3283 42.9768 82.7736C42.1088 84.7802 41.8312 87.3689 41.4296 89.5099C39.5855 99.3387 35.1211 151.296 35.8951 161.294C35.9638 162.18 34.7282 162.392 34.6665 161.31C34.3387 155.574 37.1757 115.852 38.607 102.862C40.0383 89.8714 41.4868 78.3951 42.9391 73.9009C44.701 68.4484 47.8832 61.8914 50.532 56.8068C51.7624 54.4446 53.1036 52.1638 54.6346 49.9809Z" fill="#69A1AC"/>
<path opacity="0.5" fill-rule="evenodd" clip-rule="evenodd" d="M64.1961 113.692C67.5483 111.231 71.1767 115.876 68.1434 118.337C66.4665 119.698 64.7134 119.214 63.7264 118.08C63.0857 118.861 62.4861 119.678 61.9099 120.367C60.1543 122.469 58.4951 124.621 56.9093 126.823C53.6152 131.398 50.7921 136.231 47.8405 140.976C44.9275 145.658 42.0379 150.365 39.3977 155.167C37.161 159.235 34.1798 164.02 33.4141 168.48C34.5759 159.022 38.9847 149.931 44.2347 141.592C49.442 133.323 55.418 124.291 63.4809 117.765C62.6603 116.558 62.6375 114.836 64.1961 113.692Z" fill="#C1DEE2"/>
<path opacity="0.5" fill-rule="evenodd" clip-rule="evenodd" d="M0.586493 90.6252C2.46235 90.992 5.52749 95.2355 7.07376 96.8523C8.9114 98.7736 10.5786 100.822 12.1501 102.967C15.5333 107.586 18.5589 112.496 21.1318 117.617C25.3262 125.964 28.6864 134.534 31.1251 143.624C32.6179 149.188 33.5844 154.956 34.1573 160.683C34.2654 161.763 35.3978 170.09 33.7661 170.314C32.2986 170.517 32.7518 163.991 32.681 163.104C31.8807 153.09 29.4832 143.347 26.1484 133.909C25.422 131.853 24.7471 129.334 23.5855 127.484C22.7489 126.151 23.5795 126.616 22.1093 126.112C20.847 125.679 19.4087 125.784 18.116 125.254C15.3078 124.102 13.0593 121.867 11.0882 119.618C7.25783 115.248 4.22244 110.519 2.64021 104.92C1.76251 101.815 0.955937 98.6915 0.508341 95.4904C0.392556 94.6631 -0.621736 90.3889 0.586493 90.6252Z" fill="#69A1AC"/>
<path opacity="0.5" fill-rule="evenodd" clip-rule="evenodd" d="M7.98924 20.022C15.0552 32.2762 20.8618 45.7372 24.6111 59.371C26.8827 67.6316 28.4713 76.1082 30.0498 84.5236C32.4937 97.5538 34.8053 110.583 35.4629 123.845C36.1244 137.183 37.4326 152.567 33.065 165.414C35.2466 152.371 33.1695 138.488 32.8018 125.363C32.626 119.098 32.1167 112.894 31.4487 106.665C30.8003 100.623 29.7412 94.6099 28.7549 88.6153C28.2744 85.6957 27.7698 82.7806 27.2561 79.8671C27.1027 78.9979 27.038 76.4185 26.4866 75.8247C25.9316 75.2269 23.1 74.9833 22.2111 74.5447C20.421 73.6613 18.7372 72.4066 17.2469 71.0808C14.3902 68.5393 11.9049 65.2185 9.94335 61.9449C5.4048 54.3704 3.5903 45.1268 3.68201 36.3545C3.69963 34.6514 6.43871 16.3109 5.33865 16.0584C5.40489 15.9808 5.46754 15.9007 5.52661 15.8174C6.35945 17.2118 7.17671 18.6157 7.98924 20.022Z" fill="#89C5CC"/>
<path opacity="0.5" fill-rule="evenodd" clip-rule="evenodd" d="M84.2545 64.218C84.3635 64.0608 85.0731 62.9671 84.7158 63.037C85.4433 62.8947 83.7151 64.2432 85.5279 63.4158C84.6672 64.2286 85.1639 65.2846 85.1754 66.3786C85.1941 68.1549 84.8969 69.9165 84.5624 71.6547C84.0338 74.4021 83.2463 77.0735 82.1032 79.6289C79.6119 85.1979 75.3815 90.559 70.3592 94.0407C67.8798 95.7597 65.45 96.345 62.6222 97.1363C60.8361 97.6363 60.6945 98.5602 59.7464 100.293C57.7726 103.903 55.834 107.5 54.0933 111.232C52.0147 115.688 49.997 120.149 48.0936 124.683C41.6817 139.958 36.4629 155.782 33.7222 172.159C33.6551 162.508 35.8876 152.569 38.7037 143.37C40.7551 136.668 43.4256 130.207 46.2739 123.812C46.9642 122.263 48.0101 120.27 48.3032 118.56C48.5085 117.361 47.881 116.209 47.5937 114.946C46.4737 110.03 46.5539 104.522 47.5374 99.5794C48.6218 94.1292 51.7579 91.5997 57.0631 90.8277C59.0033 90.5453 61.4693 90.6488 63.2484 89.8215C65.1866 88.9207 65.9862 85.9595 67.0884 84.0587C70.0488 78.9527 73.5661 74.0558 77.6051 69.7536C78.7234 68.5623 79.926 67.4632 81.2019 66.4444C82.0065 65.8017 83.7062 65.0098 84.2545 64.218Z" fill="#89C5CC"/>
<path opacity="0.5" fill-rule="evenodd" clip-rule="evenodd" d="M24.7668 161.736H43.5943C44.4408 161.736 45.1271 162.422 45.1271 163.269C45.1271 163.343 45.1216 163.418 45.1107 163.492L43.6555 173.36C43.2119 176.368 40.6306 178.596 37.5901 178.596H30.7711C27.7305 178.596 25.1493 176.368 24.7057 173.36L23.2505 163.492C23.127 162.655 23.7058 161.876 24.5432 161.752C24.6173 161.741 24.692 161.736 24.7668 161.736Z" fill="#C1DEE2"/>
</g>
</svg>
