<svg width="251" height="183" viewBox="0 0 251 183" fill="none" xmlns="http://www.w3.org/2000/svg">
<path opacity="0.2" fill-rule="evenodd" clip-rule="evenodd" d="M234.339 46.4618C235.177 46.0462 236.294 46.5282 235.828 47.6267C235.329 48.803 233.484 48.8176 232.441 48.7943C232.546 48.7888 232.881 47.7101 232.997 47.5471C233.336 47.0662 233.824 46.7177 234.339 46.4618ZM224.69 67.8958C224.394 68.1488 224.666 67.9195 224.69 67.8958V67.8958ZM235.313 51.9234C235.814 52.3027 235.838 52.9727 235.428 53.4264C234.94 53.9666 234.05 53.9474 233.385 53.8951C233.085 53.8714 231.48 53.7449 231.86 53.4846C231.831 53.4956 231.77 53.5222 231.704 53.5583C231.669 53.6857 231.632 53.8127 231.594 53.9391C231.603 53.9445 231.611 53.9504 231.621 53.9558C231.61 53.9511 231.602 53.946 231.593 53.9412C231.206 55.2045 230.656 56.4075 229.936 57.533C230.205 57.4279 230.484 57.3483 230.767 57.3128C231.604 57.2075 233.366 57.8511 232.428 58.9559C231.53 60.0149 230.132 58.8799 229.113 58.7238C228.123 60.091 227.032 61.4013 225.889 62.6679C225.959 62.6895 226.021 62.7348 226.056 62.8052C226.514 62.5747 226.992 62.245 227.416 62.1556C228.028 62.0267 229.284 61.9482 229.746 62.4905C230.315 63.1575 229.704 63.6997 229.032 63.828C228.057 64.0141 226.781 63.5431 225.844 63.2248C225.736 63.2437 225.619 63.2127 225.549 63.1277C225.528 63.121 225.508 63.1144 225.488 63.108C224.33 64.3684 223.128 65.5872 221.934 66.7793C221.946 66.7787 221.959 66.7779 221.972 66.7772C222.284 66.5747 222.618 66.4086 222.98 66.3215C223.818 66.1188 224.803 66.1174 225.483 66.7173C226.16 67.3146 226.399 68.3597 225.698 69.0312C224.295 70.3753 222.231 67.3133 221.524 67.1858C220.31 68.3846 219.026 69.5047 217.723 70.6022C217.871 70.5575 218.022 70.5246 218.179 70.5098C219.457 70.388 222.456 71.938 220.887 73.4652C219.519 74.796 217.939 72.2366 216.838 71.3418C215.61 72.3648 214.375 73.3807 213.174 74.4362C213.829 74.2638 214.461 74.2381 215.163 74.4477C215.888 74.6649 217.06 75.2072 216.6 76.1781C216.133 77.1655 214.726 76.717 213.994 76.404C213.594 76.2333 212.794 75.6567 212.09 75.4141C210.174 77.2054 208.515 79.1782 207.258 81.5018C206.473 82.9526 205.878 84.5025 205.458 86.0954C205.19 87.1121 204.663 88.8197 204.768 90.1428C204.267 87.4946 205.177 84.3134 206.157 81.9457C207.058 79.7684 208.406 77.8568 209.984 76.1359C209.589 74.9569 206.258 73.2578 208.25 72.1612C209.308 71.5814 210.391 72.5421 210.622 73.5599C210.78 74.2594 210.538 75.1385 210.281 75.8176C210.777 75.293 211.293 74.7852 211.825 74.2943C212.56 73.6159 213.313 72.9571 214.073 72.3065C212.822 71.1428 211.639 67.8147 213.317 67.2694C215.796 66.4666 214.6 71.0077 214.427 71.8587C214.378 71.8616 214.34 71.847 214.312 71.8155C214.325 71.8934 214.342 71.9768 214.361 72.0608C215.815 70.8222 217.291 69.608 218.718 68.3399C218.59 68.2458 218.386 67.8864 218.225 67.6952C217.863 67.264 217.516 66.8136 217.263 66.3092C216.863 65.512 216.478 64.2402 217.539 63.7706C218.694 63.259 219.241 64.6973 219.249 65.5555C219.254 66.149 219.091 66.7129 219.005 67.2947C218.979 67.4762 219.081 68.294 218.831 67.9423C218.843 68.072 218.844 68.166 218.839 68.2326C219.095 68.0038 219.349 67.7725 219.602 67.5395C219.59 67.5101 219.581 67.4781 219.579 67.4409C219.566 67.1851 219.826 67.0864 220.008 67.1612C220.342 66.8475 220.672 66.5297 220.996 66.2057C221.683 65.5193 222.38 64.8132 223.073 64.0921C222.923 63.9644 222.983 63.7875 222.842 63.652C222.702 63.5168 222.426 63.4421 222.261 63.3165C221.847 63.0004 221.503 62.5398 221.255 62.0864C220.845 61.3373 220.315 59.7657 221.514 59.4079C222.751 59.0386 223.377 60.5514 223.456 61.4974C223.472 61.6806 223.332 63.3321 223.226 63.9318C224.507 62.5917 225.767 61.2013 226.909 59.7868C226.563 59.7838 225.582 59.0824 225.384 58.8909C224.901 58.424 224.132 57.3921 224.981 56.8453C225.735 56.3604 226.664 57.0617 226.986 57.7436C227.039 57.8559 227.226 58.9011 227.24 59.3701C227.713 58.7703 228.163 58.167 228.583 57.5617C228.863 57.1593 229.124 56.7463 229.369 56.3245C229.31 56.2915 229.254 56.2339 229.202 56.1624C227.944 55.9516 226.342 54.0088 227.82 53.3318C228.523 53.0099 229.286 53.6733 229.63 54.2165C229.701 54.3277 229.815 54.8865 229.907 55.3274C230.611 53.9301 231.149 52.4509 231.559 50.9344C231.449 50.9076 231.357 50.8248 231.345 50.6823C230.734 50.3378 230.252 50.051 229.826 49.3882C229.561 48.9765 229.085 48.0358 229.863 47.8069C230.876 47.5089 231.511 49.0405 231.594 49.7949C231.603 49.8825 231.603 50.1372 231.6 50.3707C231.635 50.3659 231.67 50.3664 231.705 50.3725C231.938 49.4335 232.124 48.4824 232.272 47.5297C231.72 47.3538 231.626 44.479 231.994 44.0695C232.817 43.1525 233.397 44.4762 233.352 45.176C233.3 46.0011 232.922 46.7519 232.472 47.4182C232.424 47.4888 232.438 47.4854 232.425 47.3871C232.418 47.4357 232.402 47.4715 232.378 47.4975C232.401 47.9318 232.446 48.3765 232.424 48.7608C232.361 49.8615 232.231 50.9685 232.042 52.0551C231.996 52.3193 231.944 52.5814 231.885 52.8413C232.33 52.4662 232.929 52.1329 233.163 52.0286C233.772 51.7583 234.709 51.4663 235.313 51.9234ZM204.668 90.0383C204.698 90.392 204.785 90.7147 204.957 90.9792C204.83 90.6769 204.736 90.3621 204.668 90.0383Z" fill="#C1DEE2"/>
<g opacity="0.5">
<path opacity="0.5" fill-rule="evenodd" clip-rule="evenodd" d="M226.702 82.5017C227.705 81.0716 229.566 77.4396 230.978 76.9286C231.887 76.5995 231.622 80.0042 231.633 80.6534C231.677 83.165 231.433 85.6608 231.131 88.1514C230.587 92.6431 228.808 96.6434 226.368 100.466C225.112 102.433 223.64 104.424 221.6 105.652C220.661 106.217 219.532 106.312 218.605 106.799C217.525 107.366 218.113 106.907 217.626 108.033C216.95 109.595 216.734 111.61 216.421 113.277C214.986 120.929 211.51 161.381 212.113 169.165C212.166 169.855 211.204 170.02 211.156 169.177C210.901 164.712 213.11 133.786 214.224 123.672C215.338 113.559 216.466 104.624 217.597 101.125C218.969 96.8797 221.446 91.7747 223.508 87.816C224.466 85.9769 225.51 84.2012 226.702 82.5017Z" fill="#69A1AC"/>
<path opacity="0.5" fill-rule="evenodd" clip-rule="evenodd" d="M234.147 132.104C236.757 130.188 239.582 133.804 237.22 135.721C235.915 136.78 234.55 136.403 233.781 135.52C233.283 136.128 232.816 136.764 232.367 137.301C231 138.937 229.709 140.613 228.474 142.327C225.909 145.889 223.711 149.652 221.413 153.346C219.146 156.991 216.896 160.656 214.84 164.394C213.099 167.561 210.778 171.287 210.182 174.759C211.086 167.395 214.519 160.318 218.606 153.826C222.66 147.388 227.313 140.356 233.59 135.275C232.951 134.336 232.934 132.994 234.147 132.104Z" fill="#C1DEE2"/>
<path opacity="0.5" fill-rule="evenodd" clip-rule="evenodd" d="M184.624 114.146C186.084 114.432 188.47 117.735 189.674 118.994C191.105 120.49 192.403 122.084 193.627 123.755C196.261 127.351 198.616 131.174 200.619 135.16C203.885 141.66 206.501 148.331 208.4 155.408C209.562 159.741 210.314 164.231 210.76 168.69C210.845 169.53 211.726 176.014 210.456 176.188C209.313 176.346 209.666 171.266 209.611 170.575C208.988 162.778 207.121 155.193 204.525 147.845C203.959 146.244 203.434 144.283 202.53 142.843C201.878 141.805 202.525 142.167 201.38 141.774C200.398 141.437 199.278 141.519 198.271 141.106C196.085 140.21 194.334 138.469 192.8 136.718C189.818 133.316 187.454 129.635 186.223 125.275C185.539 122.858 184.911 120.426 184.563 117.934C184.473 117.29 183.683 113.962 184.624 114.146Z" fill="#69A1AC"/>
<path opacity="0.5" fill-rule="evenodd" clip-rule="evenodd" d="M190.387 59.1769C195.888 68.7174 200.409 79.1975 203.328 89.8122C205.097 96.2435 206.334 102.843 207.563 109.395C209.465 119.54 211.265 129.683 211.777 140.008C212.292 150.393 213.31 162.371 209.91 172.373C211.609 162.218 209.991 151.409 209.705 141.191C209.568 136.313 209.172 131.483 208.652 126.633C208.147 121.929 207.322 117.248 206.554 112.58C206.18 110.307 205.788 108.038 205.388 105.77C205.268 105.093 205.218 103.085 204.788 102.622C204.356 102.157 202.152 101.967 201.46 101.626C200.066 100.938 198.755 99.9611 197.595 98.9289C195.371 96.9502 193.436 94.3648 191.909 91.8161C188.375 85.9189 186.962 78.7223 187.034 71.8926C187.048 70.5666 189.18 56.2876 188.324 56.0909C188.375 56.0305 188.424 55.9682 188.47 55.9033C189.118 56.989 189.755 58.082 190.387 59.1769Z" fill="#89C5CC"/>
<path opacity="0.5" fill-rule="evenodd" clip-rule="evenodd" d="M249.764 93.585C249.849 93.4626 250.401 92.6111 250.123 92.6655C250.689 92.5547 249.344 93.6046 250.755 92.9604C250.085 93.5933 250.472 94.4154 250.481 95.2671C250.495 96.65 250.264 98.0216 250.003 99.3748C249.592 101.514 248.979 103.594 248.089 105.583C246.149 109.919 242.856 114.093 238.945 116.804C237.015 118.142 235.123 118.598 232.922 119.214C231.531 119.603 231.421 120.322 230.683 121.672C229.146 124.482 227.637 127.283 226.282 130.188C224.663 133.657 223.092 137.13 221.611 140.661C216.618 152.552 212.555 164.873 210.422 177.623C210.369 170.109 212.107 162.371 214.3 155.209C215.897 149.991 217.976 144.961 220.194 139.982C220.731 138.776 221.545 137.225 221.774 135.893C221.933 134.96 221.445 134.062 221.221 133.08C220.349 129.252 220.412 124.964 221.177 121.116C222.022 116.873 224.463 114.903 228.594 114.302C230.104 114.082 232.024 114.163 233.409 113.519C234.918 112.817 235.541 110.512 236.399 109.032C238.704 105.057 241.442 101.244 244.587 97.8947C245.457 96.9672 246.394 96.1115 247.387 95.3184C248.014 94.818 249.337 94.2014 249.764 93.585Z" fill="#89C5CC"/>
<path opacity="0.5" fill-rule="evenodd" clip-rule="evenodd" d="M203.449 169.508H218.108C218.767 169.508 219.301 170.042 219.301 170.701C219.301 170.759 219.297 170.818 219.288 170.875L218.155 178.558C217.81 180.899 215.8 182.634 213.433 182.634H208.124C205.757 182.634 203.747 180.899 203.402 178.558L202.269 170.875C202.173 170.223 202.623 169.617 203.275 169.521C203.333 169.512 203.391 169.508 203.449 169.508Z" fill="#C1DEE2"/>
</g>
<path fill-rule="evenodd" clip-rule="evenodd" d="M164.728 6.53711H108.131C103.783 6.53711 100.257 10.0625 100.257 14.4114V59.6884C100.257 64.0373 103.783 67.5627 108.131 67.5627H164.728C169.077 67.5627 172.602 64.0373 172.602 59.6884V14.4114C172.602 10.0625 169.077 6.53711 164.728 6.53711ZM156.854 20.3171C157.941 20.3171 158.822 21.1984 158.822 22.2856V51.8141C158.822 52.9014 157.941 53.7827 156.854 53.7827H116.006C114.919 53.7827 114.037 52.9014 114.037 51.8141V22.2856C114.037 21.1984 114.919 20.3171 116.006 20.3171H156.854Z" fill="#C5CFD6"/>
<path fill-rule="evenodd" clip-rule="evenodd" d="M67.0252 8.44632C69.993 13.4893 75.336 25.4444 73.8453 27.9334L61.1838 31.326C61.1765 31.3039 61.1692 31.2819 61.162 31.2599C56.3299 31.998 51.6138 28.9971 50.3193 24.1658L47.9288 15.2444C46.5397 10.0601 49.6163 4.73131 54.8005 3.34219L55.6738 3.10822C60.3236 1.8623 65.0896 4.20878 67.0252 8.44632Z" fill="#191847"/>
<path fill-rule="evenodd" clip-rule="evenodd" d="M54.7945 21.1969C52.1555 19.3954 50.0253 16.8919 49.3916 13.6168C47.5658 4.18027 61.1181 2.73245 64.9006 6.7286C68.683 10.7248 71.5593 22.6615 68.5133 24.373C67.2985 25.0556 64.3019 24.9838 61.0221 24.0523L66.131 36.0206L55.6525 38.8283L54.7945 21.1969Z" fill="#B28B67"/>
<path fill-rule="evenodd" clip-rule="evenodd" d="M57.2075 18.8724C59.0675 23.8831 60.447 29.8048 59.3815 31.5837L46.72 34.9763C42.7593 23.0168 50.8378 25.8944 47.7729 14.4562C48.0877 13.9306 48.3802 13.4156 48.6835 12.9577L48.5793 12.6251C49.5797 7.58886 51.7652 4.61916 55.1358 3.71602C60.1917 2.3613 62.4123 4.26544 64.3015 5.88104C64.2114 9.60875 60.4057 11.1776 57.4792 14.2703C56.9771 14.0484 56.3971 13.9902 55.8235 14.1439C54.4973 14.4992 53.7077 15.8529 54.0599 17.1674C54.4121 18.4819 55.7728 19.2594 57.099 18.904C57.1356 18.8942 57.1717 18.8837 57.2075 18.8724Z" fill="#191847"/>
<path fill-rule="evenodd" clip-rule="evenodd" d="M44.2085 119.48C55.0518 122.502 64.4071 124.012 72.2743 124.012C80.1416 124.012 87.449 121.686 94.1967 117.033C83.5855 113.932 74.8468 112.382 67.9804 112.382C61.1141 112.382 53.1901 114.748 44.2085 119.48Z" fill="#1F28CF"/>
<path fill-rule="evenodd" clip-rule="evenodd" d="M81.6608 128.368C81.5563 128.211 81.468 128.041 81.3979 127.857C79.9485 124.038 56.7328 82.8472 54.4199 75.3164H80.5576C82.3161 81.0422 90.2309 116.974 91.3448 124.143C94.8593 135.452 102.095 172.075 103.019 174.612C103.991 177.281 98.523 180.062 97.066 176.78C94.7477 171.559 89.2237 157.113 86.7641 148.292C84.4582 140.022 82.5807 132.582 81.6608 128.368Z" fill="#997659"/>
<path fill-rule="evenodd" clip-rule="evenodd" d="M60.277 133.397C49.6632 136.069 10.8399 140.9 8.17564 141.658C5.43499 142.437 3.03196 136.81 6.41956 135.591C11.8098 133.652 26.6623 129.17 35.6675 127.341C42.9107 125.87 49.5202 124.67 53.9577 123.967C53.5817 111.55 51.8633 81.7522 52.9896 75.3164H76.1166C75.0365 81.4879 65.9059 126.519 64.2088 131.026C63.6702 132.636 62.0633 133.347 60.277 133.397Z" fill="#B28B67"/>
<path fill-rule="evenodd" clip-rule="evenodd" d="M6.62995 134.053C5.21274 133.789 4.17414 133.715 3.51414 133.832C2.71143 133.973 1.56366 134.314 0.0708157 134.853C0.235012 135.784 1.71067 144.153 4.49778 159.959C6.76974 160.231 7.86778 159.649 7.7919 158.213C7.71603 156.777 7.66541 155.582 7.64006 154.628L10.7847 142.041C10.8452 141.799 10.6979 141.554 10.4557 141.493C10.4516 141.492 10.4474 141.491 10.4432 141.49L8.49144 141.061C7.65484 139.867 7.16481 138.863 7.02136 138.049C6.9048 137.388 7.0108 136.428 7.33935 135.17L7.33936 135.17C7.46544 134.687 7.17603 134.193 6.69294 134.067C6.67212 134.061 6.65111 134.056 6.62995 134.053Z" fill="#E4E4E4"/>
<path fill-rule="evenodd" clip-rule="evenodd" d="M95.4074 176.4C94.9018 177.75 94.6489 178.76 94.6489 179.43C94.6489 180.245 94.7847 181.435 95.0563 182.998C96.0019 182.998 104.5 182.998 120.55 182.998C121.213 180.808 120.83 179.626 119.403 179.451C117.976 179.276 116.79 179.119 115.846 178.978L103.996 173.696C103.768 173.594 103.501 173.696 103.399 173.924C103.398 173.928 103.396 173.932 103.394 173.936L102.633 175.784C101.311 176.4 100.238 176.708 99.4116 176.708C98.7404 176.708 97.8134 176.437 96.6307 175.895L96.6307 175.895C96.1769 175.687 95.6403 175.886 95.4322 176.34C95.4233 176.36 95.415 176.38 95.4074 176.4Z" fill="#E4E4E4"/>
<path fill-rule="evenodd" clip-rule="evenodd" d="M53.064 75.3161C63.2553 72.4116 72.898 72.4116 81.9923 75.3161C85.1563 89.6962 92.8444 95.4037 94.1964 117.451C78.8283 125.057 59.844 112.026 44.0239 119.444C39.5038 109.068 45.8319 84.0802 53.064 75.3161Z" fill="#2B44FF"/>
<path fill-rule="evenodd" clip-rule="evenodd" d="M77.1755 45.5372L91.1413 34.3922C93.1753 30.9031 95.2911 28.0988 97.4886 25.9793C98.1948 25.5284 99.4935 25.1018 98.6354 27.5225C97.7773 29.9432 96.9841 32.5276 97.7385 33.0937C98.4929 33.6598 99.909 32.4334 100.865 33.4265C101.502 34.0885 99.007 35.7519 93.3788 38.4166L83.9556 50.6249L77.1755 45.5372ZM102.627 48.375L108.759 43.4683C109.076 39.6947 109.894 37.6798 111.215 37.4237C112.149 36.7733 111.181 41.6418 113.04 40.9066C114.899 40.1714 118.992 35.8576 119.928 36.4219C121.312 37.2568 120.809 40.6587 119.83 42.4795C118 45.8824 116.23 47.248 111.644 49.436C109.246 50.5801 106.768 52.4627 104.208 55.0841L102.627 48.375Z" fill="#997659"/>
<path fill-rule="evenodd" clip-rule="evenodd" d="M69.3201 44.9881C74.7219 43.977 81.738 41.5671 88.5806 35.3456L92.7879 41.523C88.4014 47.7047 81.6929 53.3312 75.1305 54.3001C69.959 55.0637 66.2367 49.3334 69.3201 44.9881Z" fill="#2026A2"/>
<path fill-rule="evenodd" clip-rule="evenodd" d="M78.5049 54.4652C84.5016 54.8779 93.8396 51.4977 106.519 44.3245C111.091 50.6386 113.51 55.2883 113.775 58.2736C103.237 66.3495 93.7679 70.7914 85.6072 72.4133C86.7204 77.2043 86.9403 81.9111 85.6943 86.4669C83.1327 95.8329 57.7949 92.045 50.0281 95.0394C42.1196 79.6474 50.6937 71.3136 48.8648 60.8951C46.8619 49.4858 52.971 30.3034 54.3253 30.0646L66.6765 27.8867C68.8942 36.4789 74.0173 45.4757 78.5049 54.4652Z" fill="#1F28CF"/>
</svg>
