<svg width="62" height="62" viewBox="0 0 62 62" fill="none" xmlns="http://www.w3.org/2000/svg">
<path d="M31 62C48.1208 62 62 48.1208 62 31C62 13.8792 48.1208 0 31 0C13.8792 0 0 13.8792 0 31C0 48.1208 13.8792 62 31 62Z" fill="#EDEDED"/>
<path d="M30.9998 8.18863C31.9689 8.18863 32.7546 7.40302 32.7546 6.43392C32.7546 5.46481 31.9689 4.6792 30.9998 4.6792C30.0307 4.6792 29.2451 5.46481 29.2451 6.43392C29.2451 7.40302 30.0307 8.18863 30.9998 8.18863Z" fill="black" fill-opacity="0.1"/>
<path d="M6.43392 32.7546C7.40302 32.7546 8.18863 31.9689 8.18863 30.9998C8.18863 30.0307 7.40302 29.2451 6.43392 29.2451C5.46481 29.2451 4.6792 30.0307 4.6792 30.9998C4.6792 31.9689 5.46481 32.7546 6.43392 32.7546Z" fill="black" fill-opacity="0.1"/>
<path d="M55.5662 32.7546C56.5353 32.7546 57.321 31.9689 57.321 30.9998C57.321 30.0307 56.5353 29.2451 55.5662 29.2451C54.5971 29.2451 53.8115 30.0307 53.8115 30.9998C53.8115 31.9689 54.5971 32.7546 55.5662 32.7546Z" fill="black" fill-opacity="0.1"/>
<path d="M30.9998 57.321C31.9689 57.321 32.7546 56.5353 32.7546 55.5662C32.7546 54.5971 31.9689 53.8115 30.9998 53.8115C30.0307 53.8115 29.2451 54.5971 29.2451 55.5662C29.2451 56.5353 30.0307 57.321 30.9998 57.321Z" fill="black" fill-opacity="0.1"/>
<path fill-rule="evenodd" clip-rule="evenodd" d="M30.9999 9.94336L32.1697 30.4151H29.8301L30.9999 9.94336Z" fill="#AFB9C5"/>
<path fill-rule="evenodd" clip-rule="evenodd" d="M41.352 41.3521L30.5987 32.2531L32.253 30.5987L41.352 41.3521Z" fill="#AFB9C5"/>
<path d="M30.9998 33.3394C32.2919 33.3394 33.3394 32.2919 33.3394 30.9998C33.3394 29.7076 32.2919 28.6602 30.9998 28.6602C29.7076 28.6602 28.6602 29.7076 28.6602 30.9998C28.6602 32.2919 29.7076 33.3394 30.9998 33.3394Z" fill="#C5CFD6"/>
</svg>
