<svg width="78" height="89" viewBox="0 0 78 89" fill="none" xmlns="http://www.w3.org/2000/svg">
<path fill-rule="evenodd" clip-rule="evenodd" d="M53.7875 11.0074C55.01 9.5724 55.8374 7.81382 55.6991 5.84328C55.3008 0.165601 47.3972 1.41462 45.8598 4.28022C44.3224 7.14583 44.5051 14.4147 46.4921 14.9268C47.2845 15.1311 48.9725 14.6308 50.6905 13.5952L49.6121 21.2243H55.9795L53.7875 11.0074Z" fill="#915B3C"/>
<path fill-rule="evenodd" clip-rule="evenodd" d="M54.277 12.2857C55.0762 8.73028 57.3529 6.3067 57.0052 4.71759C56.7734 3.65819 56.1555 2.99939 55.1517 2.74118C54.6325 0.640847 52.958 -0.252505 50.1283 0.0611202C45.8837 0.531559 43.293 2.2943 44.4118 6.17311C45.4402 6.17311 46.6817 5.80118 48.3985 6.43842C48.9433 6.64061 49.3329 7.26763 49.5673 8.31947H50.3432C51.0961 7.07122 51.8385 6.61252 52.5704 6.94338C53.3023 7.27423 53.4686 8.07788 53.0695 9.35431L53.4517 12.2857H54.277Z" fill="#191847"/>
<path fill-rule="evenodd" clip-rule="evenodd" d="M73.7551 54.3877H43.2449C40.9005 54.3877 39 56.2882 39 58.6326V83.0408C39 85.3852 40.9005 87.2857 43.2449 87.2857H73.7551C76.0995 87.2857 78 85.3852 78 83.0408V58.6326C78 56.2882 76.0995 54.3877 73.7551 54.3877ZM69.5102 61.8163C70.0963 61.8163 70.5714 62.2914 70.5714 62.8775V78.7959C70.5714 79.382 70.0963 79.8571 69.5102 79.8571H47.4898C46.9037 79.8571 46.4286 79.382 46.4286 78.7959V62.8775C46.4286 62.2914 46.9037 61.8163 47.4898 61.8163H69.5102Z" fill="#C5CFD6"/>
<path fill-rule="evenodd" clip-rule="evenodd" d="M12.6923 85.9593C17.923 79.5718 21.4622 74.8364 23.31 71.7531C26.4738 66.4738 29.0632 61.7761 29.8803 59.9817C31.829 55.7025 25.3943 53.6987 23.938 55.6947C21.7339 58.7156 17.0265 68.2217 9.81606 84.2129L12.6923 85.9593Z" fill="#B28B67"/>
<path fill-rule="evenodd" clip-rule="evenodd" d="M23.4114 84.102L33.1461 59.5975C35.2282 55.1305 25.1735 52.1942 23.6434 54.273C20.1694 58.9927 11.9127 77.611 10.8777 79.0172L23.4114 84.102Z" fill="#2F3676"/>
<path fill-rule="evenodd" clip-rule="evenodd" d="M49.3383 79.1878C47.442 76.4217 40.5446 67.1157 36.7877 63.2652C35.7082 62.1587 34.6548 61.0967 33.6585 60.1071C30.6971 57.1655 24.7999 62.1097 27.7559 64.789C35.1172 71.4615 45.858 80.4692 46.7554 81.2724C48.0131 82.398 50.53 80.9262 49.3383 79.1878Z" fill="#915B3C"/>
<path fill-rule="evenodd" clip-rule="evenodd" d="M48.8947 77.9385C49.5479 78.4763 49.9729 78.9155 50.1696 79.2562C50.4088 79.6705 50.6888 80.315 51.0097 81.1896C50.5291 81.4671 46.2094 83.961 38.0507 88.6714C37.0712 87.7526 36.9186 87.0393 37.5929 86.5316C38.2672 86.0239 38.8236 85.5958 39.2622 85.2472L43.7352 79.0845C43.8212 78.9659 43.9871 78.9396 44.1057 79.0256C44.1077 79.0271 44.1097 79.0286 44.1117 79.0301L45.0411 79.7458C45.8937 79.6714 46.53 79.513 46.9499 79.2705C47.2911 79.0735 47.6827 78.6637 48.1248 78.041L48.1248 78.041C48.2944 77.8021 48.6257 77.7459 48.8646 77.9155C48.8749 77.9228 48.885 77.9305 48.8947 77.9385Z" fill="#E4E4E4"/>
<path fill-rule="evenodd" clip-rule="evenodd" d="M14.9425 85.0049C15.2393 85.7973 15.3877 86.3901 15.3877 86.7835C15.3877 87.2619 15.308 87.96 15.1486 88.8779C14.5936 88.8779 9.60567 88.8779 0.184844 88.8779C-0.20401 87.5923 0.0204592 86.8983 0.858253 86.7958C1.69605 86.6933 2.39202 86.6008 2.94616 86.5182L9.90117 83.4176C10.035 83.3579 10.1918 83.418 10.2515 83.5519C10.2525 83.5542 10.2535 83.5565 10.2545 83.5588L10.7015 84.6432C11.4771 85.0051 12.1074 85.186 12.5922 85.186C12.9862 85.186 13.5303 85.0269 14.2245 84.7087L14.2245 84.7087C14.4909 84.5866 14.8058 84.7036 14.9279 84.9699C14.9332 84.9814 14.938 84.9931 14.9425 85.0049Z" fill="#E4E4E4"/>
<path fill-rule="evenodd" clip-rule="evenodd" d="M36.6491 60.8216C44.74 59.5034 50.1595 58.6021 52.9074 58.1176C60.7401 56.7365 63.0242 52.5215 61.6737 43.3252H47.2422C45.3324 43.8767 37.3526 47.2876 23.3027 53.5579C20.7749 54.8128 21.2456 58.5127 21.7077 59.7317C21.7265 59.7814 25.988 67.0836 34.4921 81.6382L46.2977 74.1175L36.6269 61.7078C36.3715 61.1934 36.3789 60.898 36.6491 60.8216Z" fill="#5C63AB"/>
<path fill-rule="evenodd" clip-rule="evenodd" d="M35.6088 39.8521L27.146 46.0665C24.8507 46.6858 22.9331 47.4564 21.3931 48.3782C21.0293 48.7097 20.5897 49.381 22.0983 49.265C23.607 49.1489 25.1991 49.0948 25.4072 49.6093C25.6154 50.1239 24.7024 50.7393 25.1232 51.4336C25.4038 51.8965 26.7291 50.7358 29.0992 47.9517L37.4796 44.4766L35.6088 39.8521ZM68.1017 40.0665L62.5575 40.0883C65.9808 51.1393 67.8289 57.0029 68.1017 57.6791C68.7156 59.2005 67.4165 61.5175 66.861 62.7627C68.6704 63.5724 68.4776 60.5739 70.7601 61.6358C72.8435 62.6051 74.4283 64.3613 76.8353 62.8761C77.1312 62.6935 77.4555 62.006 76.672 61.4687C74.7199 60.1302 71.9069 57.7876 71.5268 57.0165C71.0085 55.965 69.8668 50.315 68.1017 40.0665Z" fill="#915B3C"/>
<path fill-rule="evenodd" clip-rule="evenodd" d="M52.346 16.8021L50.0519 16.4086C41.54 23.7617 38.0438 37.8878 27.6103 45.371L30.1216 48.4838C48.2218 46.2427 52.7081 29.0122 52.346 16.8021Z" fill="#E87613"/>
<path fill-rule="evenodd" clip-rule="evenodd" d="M62.3467 45.6326C53.1481 45.6326 46.3817 45.6326 42.0477 45.6326C41.1202 45.6326 41.2949 44.2932 41.429 43.6174C42.9765 35.8173 49.0174 27.4091 49.0174 16.3058L54.8725 15.3877C59.7155 23.1767 61.3903 32.7665 62.3467 45.6326Z" fill="#DDE3E9"/>
<path fill-rule="evenodd" clip-rule="evenodd" d="M62.1838 23.0438C63.0342 22.7994 63.7076 22.2293 64.204 21.3335C66.3441 17.4719 65.5712 15.3458 63.2842 14.647C60.9971 13.9481 58.9575 15.3877 55.3136 15.3877C55.1154 15.3877 54.9339 15.4001 54.769 15.4249L52.9361 15.5295C47.677 33.3529 46.2266 45.2444 48.5848 51.204H64.5617C65.5083 53.4113 66.4141 55.2684 67.2792 56.7754H71.6326C72.0423 43.5279 68.8927 32.284 62.1838 23.0438Z" fill="#FF9B21"/>
<path fill-rule="evenodd" clip-rule="evenodd" d="M61.0825 42.0503C60.58 46.2544 59.7633 49.3057 58.6324 51.204H64.5615C63.4573 48.6292 62.2976 45.578 61.0825 42.0503Z" fill="black" fill-opacity="0.1"/>
</svg>
