<svg width="20" height="25" viewBox="0 0 20 25" fill="none" xmlns="http://www.w3.org/2000/svg">
<rect width="20" height="25" rx="3" fill="#FF7892"/>
<path d="M2.5625 20.6211C2.5625 20.4961 2.59896 20.3919 2.67188 20.3086C2.7474 20.2253 2.85938 20.1836 3.00781 20.1836C3.15625 20.1836 3.26823 20.2253 3.34375 20.3086C3.42188 20.3919 3.46094 20.4961 3.46094 20.6211C3.46094 20.7409 3.42188 20.8411 3.34375 20.9219C3.26823 21.0026 3.15625 21.043 3.00781 21.043C2.85938 21.043 2.7474 21.0026 2.67188 20.9219C2.59896 20.8411 2.5625 20.7409 2.5625 20.6211Z" fill="white"/>
<path d="M7.26562 21C7.22396 20.9167 7.1901 20.7682 7.16406 20.5547C6.82812 20.9036 6.42708 21.0781 5.96094 21.0781C5.54427 21.0781 5.20182 20.9609 4.93359 20.7266C4.66797 20.4896 4.53516 20.1901 4.53516 19.8281C4.53516 19.388 4.70182 19.0469 5.03516 18.8047C5.37109 18.5599 5.84245 18.4375 6.44922 18.4375H7.15234V18.1055C7.15234 17.8529 7.07682 17.6523 6.92578 17.5039C6.77474 17.3529 6.55208 17.2773 6.25781 17.2773C6 17.2773 5.78385 17.3424 5.60938 17.4727C5.4349 17.6029 5.34766 17.7604 5.34766 17.9453H4.62109C4.62109 17.7344 4.69531 17.5312 4.84375 17.3359C4.99479 17.138 5.19792 16.9818 5.45312 16.8672C5.71094 16.7526 5.99349 16.6953 6.30078 16.6953C6.78776 16.6953 7.16927 16.8177 7.44531 17.0625C7.72135 17.3047 7.86458 17.6393 7.875 18.0664V20.0117C7.875 20.3997 7.92448 20.7083 8.02344 20.9375V21H7.26562ZM6.06641 20.4492C6.29297 20.4492 6.50781 20.3906 6.71094 20.2734C6.91406 20.1562 7.0612 20.0039 7.15234 19.8164V18.9492H6.58594C5.70052 18.9492 5.25781 19.2083 5.25781 19.7266C5.25781 19.9531 5.33333 20.1302 5.48438 20.2578C5.63542 20.3854 5.82943 20.4492 6.06641 20.4492Z" fill="white"/>
<path d="M11.6172 21C11.5755 20.9167 11.5417 20.7682 11.5156 20.5547C11.1797 20.9036 10.7786 21.0781 10.3125 21.0781C9.89583 21.0781 9.55339 20.9609 9.28516 20.7266C9.01953 20.4896 8.88672 20.1901 8.88672 19.8281C8.88672 19.388 9.05339 19.0469 9.38672 18.8047C9.72266 18.5599 10.194 18.4375 10.8008 18.4375H11.5039V18.1055C11.5039 17.8529 11.4284 17.6523 11.2773 17.5039C11.1263 17.3529 10.9036 17.2773 10.6094 17.2773C10.3516 17.2773 10.1354 17.3424 9.96094 17.4727C9.78646 17.6029 9.69922 17.7604 9.69922 17.9453H8.97266C8.97266 17.7344 9.04688 17.5312 9.19531 17.3359C9.34635 17.138 9.54948 16.9818 9.80469 16.8672C10.0625 16.7526 10.3451 16.6953 10.6523 16.6953C11.1393 16.6953 11.5208 16.8177 11.7969 17.0625C12.0729 17.3047 12.2161 17.6393 12.2266 18.0664V20.0117C12.2266 20.3997 12.276 20.7083 12.375 20.9375V21H11.6172ZM10.418 20.4492C10.6445 20.4492 10.8594 20.3906 11.0625 20.2734C11.2656 20.1562 11.4128 20.0039 11.5039 19.8164V18.9492H10.9375C10.0521 18.9492 9.60938 19.2083 9.60938 19.7266C9.60938 19.9531 9.6849 20.1302 9.83594 20.2578C9.98698 20.3854 10.181 20.4492 10.418 20.4492Z" fill="white"/>
<path d="M15.0547 20.4883C15.3125 20.4883 15.5378 20.4102 15.7305 20.2539C15.9232 20.0977 16.0299 19.9023 16.0508 19.668H16.7344C16.7214 19.9102 16.638 20.1406 16.4844 20.3594C16.3307 20.5781 16.125 20.7526 15.8672 20.8828C15.612 21.013 15.3411 21.0781 15.0547 21.0781C14.4792 21.0781 14.0208 20.8867 13.6797 20.5039C13.3411 20.1185 13.1719 19.5924 13.1719 18.9258V18.8047C13.1719 18.3932 13.2474 18.0273 13.3984 17.707C13.5495 17.3867 13.7656 17.138 14.0469 16.9609C14.3307 16.7839 14.6654 16.6953 15.0508 16.6953C15.5247 16.6953 15.918 16.8372 16.2305 17.1211C16.5456 17.4049 16.7135 17.7734 16.7344 18.2266H16.0508C16.0299 17.9531 15.9258 17.7292 15.7383 17.5547C15.5534 17.3776 15.3242 17.2891 15.0508 17.2891C14.6836 17.2891 14.3984 17.4219 14.1953 17.6875C13.9948 17.9505 13.8945 18.332 13.8945 18.832V18.9688C13.8945 19.4557 13.9948 19.8307 14.1953 20.0938C14.3958 20.3568 14.6823 20.4883 15.0547 20.4883Z" fill="white"/>
<path d="M9.76923 4V8.12444C9.55231 8.04889 9.32154 8 9.07692 8C7.92769 8 7 8.89333 7 10C7 11.1067 7.92769 12 9.07692 12C10.1431 12 11.0154 11.2222 11.1308 10.2222H11.1538V5.33333H13V4H9.76923Z" fill="white"/>
</svg>
