<svg width="20" height="25" viewBox="0 0 20 25" fill="none" xmlns="http://www.w3.org/2000/svg">
<path d="M2.5 0C1.125 0 0.0125003 1.125 0.0125003 2.5L0 22.5C0 23.875 1.1125 25 2.4875 25H17.5C18.875 25 20 23.875 20 22.5V7.5L12.5 0H2.5ZM11.25 8.75V1.875L18.125 8.75H11.25Z" fill="#56CCF2"/>
<path d="M3.5625 20.6211C3.5625 20.4961 3.59896 20.3919 3.67188 20.3086C3.7474 20.2253 3.85938 20.1836 4.00781 20.1836C4.15625 20.1836 4.26823 20.2253 4.34375 20.3086C4.42188 20.3919 4.46094 20.4961 4.46094 20.6211C4.46094 20.7409 4.42188 20.8411 4.34375 20.9219C4.26823 21.0026 4.15625 21.043 4.00781 21.043C3.85938 21.043 3.7474 21.0026 3.67188 20.9219C3.59896 20.8411 3.5625 20.7409 3.5625 20.6211Z" fill="white"/>
<path d="M5.48047 18.8516C5.48047 18.2031 5.63411 17.6823 5.94141 17.2891C6.2487 16.8932 6.65104 16.6953 7.14844 16.6953C7.64323 16.6953 8.03516 16.8646 8.32422 17.2031V15H9.04688V21H8.38281L8.34766 20.5469C8.05859 20.901 7.65625 21.0781 7.14062 21.0781C6.65104 21.0781 6.2513 20.8776 5.94141 20.4766C5.63411 20.0755 5.48047 19.5521 5.48047 18.9062V18.8516ZM6.20312 18.9336C6.20312 19.4128 6.30208 19.7878 6.5 20.0586C6.69792 20.3294 6.97135 20.4648 7.32031 20.4648C7.77865 20.4648 8.11328 20.2591 8.32422 19.8477V17.9062C8.10807 17.5078 7.77604 17.3086 7.32812 17.3086C6.97396 17.3086 6.69792 17.4453 6.5 17.7188C6.30208 17.9922 6.20312 18.3971 6.20312 18.9336Z" fill="white"/>
<path d="M9.98047 18.8477C9.98047 18.4336 10.0612 18.0612 10.2227 17.7305C10.3867 17.3997 10.6133 17.1445 10.9023 16.9648C11.194 16.7852 11.526 16.6953 11.8984 16.6953C12.474 16.6953 12.9388 16.8945 13.293 17.293C13.6497 17.6914 13.8281 18.2214 13.8281 18.8828V18.9336C13.8281 19.3451 13.7487 19.7148 13.5898 20.043C13.4336 20.3685 13.2083 20.6224 12.9141 20.8047C12.6224 20.987 12.2865 21.0781 11.9062 21.0781C11.3333 21.0781 10.8685 20.8789 10.5117 20.4805C10.1576 20.082 9.98047 19.5547 9.98047 18.8984V18.8477ZM10.707 18.9336C10.707 19.4023 10.8151 19.7786 11.0312 20.0625C11.25 20.3464 11.5417 20.4883 11.9062 20.4883C12.2734 20.4883 12.5651 20.3451 12.7812 20.0586C12.9974 19.7695 13.1055 19.3659 13.1055 18.8477C13.1055 18.3841 12.9948 18.0091 12.7734 17.7227C12.5547 17.4336 12.263 17.2891 11.8984 17.2891C11.5417 17.2891 11.2539 17.431 11.0352 17.7148C10.8164 17.9987 10.707 18.4049 10.707 18.9336Z" fill="white"/>
<path d="M16.4297 20.4883C16.6875 20.4883 16.9128 20.4102 17.1055 20.2539C17.2982 20.0977 17.4049 19.9023 17.4258 19.668H18.1094C18.0964 19.9102 18.013 20.1406 17.8594 20.3594C17.7057 20.5781 17.5 20.7526 17.2422 20.8828C16.987 21.013 16.7161 21.0781 16.4297 21.0781C15.8542 21.0781 15.3958 20.8867 15.0547 20.5039C14.7161 20.1185 14.5469 19.5924 14.5469 18.9258V18.8047C14.5469 18.3932 14.6224 18.0273 14.7734 17.707C14.9245 17.3867 15.1406 17.138 15.4219 16.9609C15.7057 16.7839 16.0404 16.6953 16.4258 16.6953C16.8997 16.6953 17.293 16.8372 17.6055 17.1211C17.9206 17.4049 18.0885 17.7734 18.1094 18.2266H17.4258C17.4049 17.9531 17.3008 17.7292 17.1133 17.5547C16.9284 17.3776 16.6992 17.2891 16.4258 17.2891C16.0586 17.2891 15.7734 17.4219 15.5703 17.6875C15.3698 17.9505 15.2695 18.332 15.2695 18.832V18.9688C15.2695 19.4557 15.3698 19.8307 15.5703 20.0938C15.7708 20.3568 16.0573 20.4883 16.4297 20.4883Z" fill="white"/>
</svg>
