<svg width="20" height="25" viewBox="0 0 20 25" fill="none" xmlns="http://www.w3.org/2000/svg">
<rect width="20" height="25" rx="3" fill="black"/>
<path d="M2.5625 21.6211C2.5625 21.4961 2.59896 21.3919 2.67188 21.3086C2.7474 21.2253 2.85938 21.1836 3.00781 21.1836C3.15625 21.1836 3.26823 21.2253 3.34375 21.3086C3.42188 21.3919 3.46094 21.4961 3.46094 21.6211C3.46094 21.7409 3.42188 21.8411 3.34375 21.9219C3.26823 22.0026 3.15625 22.043 3.00781 22.043C2.85938 22.043 2.7474 22.0026 2.67188 21.9219C2.59896 21.8411 2.5625 21.7409 2.5625 21.6211Z" fill="white"/>
<path d="M6.41016 22.0781C5.83724 22.0781 5.37109 21.8906 5.01172 21.5156C4.65234 21.138 4.47266 20.6341 4.47266 20.0039V19.8711C4.47266 19.4518 4.55208 19.0781 4.71094 18.75C4.8724 18.4193 5.09635 18.1615 5.38281 17.9766C5.67188 17.7891 5.98438 17.6953 6.32031 17.6953C6.86979 17.6953 7.29688 17.8763 7.60156 18.2383C7.90625 18.6003 8.05859 19.1185 8.05859 19.793V20.0938H5.19531C5.20573 20.5104 5.32682 20.8477 5.55859 21.1055C5.79297 21.3607 6.08984 21.4883 6.44922 21.4883C6.70443 21.4883 6.92057 21.4362 7.09766 21.332C7.27474 21.2279 7.42969 21.0898 7.5625 20.918L8.00391 21.2617C7.64974 21.806 7.11849 22.0781 6.41016 22.0781ZM6.32031 18.2891C6.02865 18.2891 5.78385 18.3958 5.58594 18.6094C5.38802 18.8203 5.26562 19.1172 5.21875 19.5H7.33594V19.4453C7.3151 19.0781 7.21615 18.7943 7.03906 18.5938C6.86198 18.3906 6.6224 18.2891 6.32031 18.2891Z" fill="white"/>
<path d="M10.3164 19.3164L11.2539 17.7734H12.0977L10.7148 19.8633L12.1406 22H11.3047L10.3281 20.418L9.35156 22H8.51172L9.9375 19.8633L8.55469 17.7734H9.39062L10.3164 19.3164Z" fill="white"/>
<path d="M14.543 22.0781C13.9701 22.0781 13.5039 21.8906 13.1445 21.5156C12.7852 21.138 12.6055 20.6341 12.6055 20.0039V19.8711C12.6055 19.4518 12.6849 19.0781 12.8438 18.75C13.0052 18.4193 13.2292 18.1615 13.5156 17.9766C13.8047 17.7891 14.1172 17.6953 14.4531 17.6953C15.0026 17.6953 15.4297 17.8763 15.7344 18.2383C16.0391 18.6003 16.1914 19.1185 16.1914 19.793V20.0938H13.3281C13.3385 20.5104 13.4596 20.8477 13.6914 21.1055C13.9258 21.3607 14.2227 21.4883 14.582 21.4883C14.8372 21.4883 15.0534 21.4362 15.2305 21.332C15.4076 21.2279 15.5625 21.0898 15.6953 20.918L16.1367 21.2617C15.7826 21.806 15.2513 22.0781 14.543 22.0781ZM14.4531 18.2891C14.1615 18.2891 13.9167 18.3958 13.7188 18.6094C13.5208 18.8203 13.3984 19.1172 13.3516 19.5H15.4688V19.4453C15.4479 19.0781 15.349 18.7943 15.1719 18.5938C14.9948 18.3906 14.7552 18.2891 14.4531 18.2891Z" fill="white"/>
<path d="M13.8251 9.4875C13.8444 9.33125 13.8572 9.16875 13.8572 9C13.8572 8.83125 13.8444 8.66875 13.8187 8.5125L14.9051 7.6875C15.0015 7.6125 15.0273 7.475 14.9694 7.36875L13.9408 5.6375C13.8765 5.525 13.7415 5.4875 13.6258 5.525L12.3465 6.025C12.0765 5.825 11.7936 5.6625 11.4786 5.5375L11.2857 4.2125C11.2665 4.0875 11.1572 4 11.0286 4H8.9714C8.84283 4 8.73997 4.0875 8.72068 4.2125L8.52782 5.5375C8.21282 5.6625 7.92352 5.83125 7.65995 6.025L6.38063 5.525C6.26491 5.48125 6.12991 5.525 6.06562 5.6375L5.03703 7.36875C4.97274 7.48125 4.99845 7.6125 5.10131 7.6875L6.18777 8.5125C6.16205 8.66875 6.14277 8.8375 6.14277 9C6.14277 9.1625 6.15562 9.33125 6.18134 9.4875L5.09488 10.3125C4.99845 10.3875 4.97274 10.525 5.0306 10.6312L6.05919 12.3625C6.12348 12.475 6.25848 12.5125 6.3742 12.475L7.65352 11.975C7.92352 12.175 8.20639 12.3375 8.52139 12.4625L8.71426 13.7875C8.73997 13.9125 8.84283 14 8.9714 14H11.0286C11.1572 14 11.2665 13.9125 11.2793 13.7875L11.4722 12.4625C11.7872 12.3375 12.0765 12.1687 12.3401 11.975L13.6194 12.475C13.7351 12.5188 13.8701 12.475 13.9344 12.3625L14.963 10.6312C15.0273 10.5187 15.0015 10.3875 14.8987 10.3125L13.8251 9.4875ZM10 10.875C8.93926 10.875 8.07138 10.0312 8.07138 9C8.07138 7.96875 8.93926 7.125 10 7.125C11.0607 7.125 11.9286 7.96875 11.9286 9C11.9286 10.0312 11.0607 10.875 10 10.875Z" fill="white"/>
</svg>
