<svg width="20" height="25" viewBox="0 0 20 25" fill="none" xmlns="http://www.w3.org/2000/svg">
<rect width="20" height="25" rx="3" fill="#9B51E0"/>
<path d="M6.5 6.5L2.5 11.5H17.5L14.5 4L10 9L6.5 6.5Z" fill="white"/>
<path d="M3.5625 20.6211C3.5625 20.4961 3.59896 20.3919 3.67188 20.3086C3.7474 20.2253 3.85938 20.1836 4.00781 20.1836C4.15625 20.1836 4.26823 20.2253 4.34375 20.3086C4.42188 20.3919 4.46094 20.4961 4.46094 20.6211C4.46094 20.7409 4.42188 20.8411 4.34375 20.9219C4.26823 21.0026 4.15625 21.043 4.00781 21.043C3.85938 21.043 3.7474 21.0026 3.67188 20.9219C3.59896 20.8411 3.5625 20.7409 3.5625 20.6211Z" fill="white"/>
<path d="M6.40234 16.7734V21.4883C6.40234 22.3008 6.03385 22.707 5.29688 22.707C5.13802 22.707 4.99089 22.6836 4.85547 22.6367V22.0586C4.9388 22.0794 5.04818 22.0898 5.18359 22.0898C5.34505 22.0898 5.46745 22.0456 5.55078 21.957C5.63672 21.8711 5.67969 21.7201 5.67969 21.5039V16.7734H6.40234ZM5.60547 15.6523C5.60547 15.5378 5.64062 15.4401 5.71094 15.3594C5.78385 15.276 5.88932 15.2344 6.02734 15.2344C6.16797 15.2344 6.27474 15.2747 6.34766 15.3555C6.42057 15.4362 6.45703 15.5352 6.45703 15.6523C6.45703 15.7695 6.42057 15.8672 6.34766 15.9453C6.27474 16.0234 6.16797 16.0625 6.02734 16.0625C5.88672 16.0625 5.78125 16.0234 5.71094 15.9453C5.64062 15.8672 5.60547 15.7695 5.60547 15.6523Z" fill="white"/>
<path d="M11.1406 18.9336C11.1406 19.5768 10.9935 20.0951 10.6992 20.4883C10.4049 20.8815 10.0065 21.0781 9.50391 21.0781C8.99089 21.0781 8.58724 20.9154 8.29297 20.5898V22.625H7.57031V16.7734H8.23047L8.26562 17.2422C8.5599 16.8776 8.96875 16.6953 9.49219 16.6953C10 16.6953 10.401 16.8867 10.6953 17.2695C10.9922 17.6523 11.1406 18.1849 11.1406 18.8672V18.9336ZM10.418 18.8516C10.418 18.375 10.3164 17.9987 10.1133 17.7227C9.91016 17.4466 9.63151 17.3086 9.27734 17.3086C8.83984 17.3086 8.51172 17.5026 8.29297 17.8906V19.9102C8.50911 20.2956 8.83984 20.4883 9.28516 20.4883C9.63151 20.4883 9.90625 20.3516 10.1094 20.0781C10.3151 19.8021 10.418 19.3932 10.418 18.8516Z" fill="white"/>
<path d="M11.8906 18.8516C11.8906 18.1927 12.043 17.6693 12.3477 17.2812C12.6523 16.8906 13.056 16.6953 13.5586 16.6953C14.0742 16.6953 14.4766 16.8776 14.7656 17.2422L14.8008 16.7734H15.4609V20.8984C15.4609 21.4453 15.2982 21.8763 14.9727 22.1914C14.6497 22.5065 14.2148 22.6641 13.668 22.6641C13.3633 22.6641 13.0651 22.599 12.7734 22.4688C12.4818 22.3385 12.2591 22.1602 12.1055 21.9336L12.4805 21.5C12.7904 21.8828 13.1693 22.0742 13.6172 22.0742C13.9688 22.0742 14.2422 21.9753 14.4375 21.7773C14.6354 21.5794 14.7344 21.3008 14.7344 20.9414V20.5781C14.4453 20.9115 14.0508 21.0781 13.5508 21.0781C13.056 21.0781 12.6549 20.8789 12.3477 20.4805C12.043 20.082 11.8906 19.5391 11.8906 18.8516ZM12.6172 18.9336C12.6172 19.4102 12.7148 19.7852 12.9102 20.0586C13.1055 20.3294 13.3789 20.4648 13.7305 20.4648C14.1862 20.4648 14.5208 20.2578 14.7344 19.8438V17.9141C14.513 17.5104 14.181 17.3086 13.7383 17.3086C13.3867 17.3086 13.112 17.4453 12.9141 17.7188C12.7161 17.9922 12.6172 18.3971 12.6172 18.9336Z" fill="white"/>
</svg>
