<svg width="20" height="25" viewBox="0 0 20 25" fill="none" xmlns="http://www.w3.org/2000/svg">
<rect width="20" height="25" rx="3" fill="#1F28CF"/>
<path d="M1.5625 21.6211C1.5625 21.4961 1.59896 21.3919 1.67188 21.3086C1.7474 21.2253 1.85938 21.1836 2.00781 21.1836C2.15625 21.1836 2.26823 21.2253 2.34375 21.3086C2.42188 21.3919 2.46094 21.4961 2.46094 21.6211C2.46094 21.7409 2.42188 21.8411 2.34375 21.9219C2.26823 22.0026 2.15625 22.043 2.00781 22.043C1.85938 22.043 1.7474 22.0026 1.67188 21.9219C1.59896 21.8411 1.5625 21.7409 1.5625 21.6211Z" fill="white"/>
<path d="M4.33594 17.7734L4.35547 18.2422C4.66536 17.8776 5.08333 17.6953 5.60938 17.6953C6.20052 17.6953 6.60286 17.9219 6.81641 18.375C6.95703 18.1719 7.13932 18.0078 7.36328 17.8828C7.58984 17.7578 7.85677 17.6953 8.16406 17.6953C9.09115 17.6953 9.5625 18.1862 9.57812 19.168V22H8.85547V19.2109C8.85547 18.9089 8.78646 18.6836 8.64844 18.5352C8.51042 18.3841 8.27865 18.3086 7.95312 18.3086C7.6849 18.3086 7.46224 18.3893 7.28516 18.5508C7.10807 18.7096 7.00521 18.9245 6.97656 19.1953V22H6.25V19.2305C6.25 18.6159 5.94922 18.3086 5.34766 18.3086C4.8737 18.3086 4.54948 18.5104 4.375 18.9141V22H3.65234V17.7734H4.33594Z" fill="white"/>
<path d="M10.4805 19.8477C10.4805 19.4336 10.5612 19.0612 10.7227 18.7305C10.8867 18.3997 11.1133 18.1445 11.4023 17.9648C11.694 17.7852 12.026 17.6953 12.3984 17.6953C12.974 17.6953 13.4388 17.8945 13.793 18.293C14.1497 18.6914 14.3281 19.2214 14.3281 19.8828V19.9336C14.3281 20.3451 14.2487 20.7148 14.0898 21.043C13.9336 21.3685 13.7083 21.6224 13.4141 21.8047C13.1224 21.987 12.7865 22.0781 12.4062 22.0781C11.8333 22.0781 11.3685 21.8789 11.0117 21.4805C10.6576 21.082 10.4805 20.5547 10.4805 19.8984V19.8477ZM11.207 19.9336C11.207 20.4023 11.3151 20.7786 11.5312 21.0625C11.75 21.3464 12.0417 21.4883 12.4062 21.4883C12.7734 21.4883 13.0651 21.3451 13.2812 21.0586C13.4974 20.7695 13.6055 20.3659 13.6055 19.8477C13.6055 19.3841 13.4948 19.0091 13.2734 18.7227C13.0547 18.4336 12.763 18.2891 12.3984 18.2891C12.0417 18.2891 11.7539 18.431 11.5352 18.7148C11.3164 18.9987 11.207 19.4049 11.207 19.9336Z" fill="white"/>
<path d="M16.5664 21.0195L17.6133 17.7734H18.3516L16.8359 22H16.2852L14.7539 17.7734H15.4922L16.5664 21.0195Z" fill="white"/>
<path d="M13.3333 7.625V5.58333C13.3333 5.2625 13.0333 5 12.6667 5H4.66667C4.3 5 4 5.2625 4 5.58333V11.4167C4 11.7375 4.3 12 4.66667 12H12.6667C13.0333 12 13.3333 11.7375 13.3333 11.4167V9.375L16 11.7083V5.29167L13.3333 7.625Z" fill="white"/>
</svg>
