<svg width="20" height="25" viewBox="0 0 20 25" fill="none" xmlns="http://www.w3.org/2000/svg">
<rect width="20" height="25" rx="3" fill="#FF7892"/>
<path d="M1.5625 21.6172C1.5625 21.4948 1.60026 21.3919 1.67578 21.3086C1.75391 21.2227 1.86589 21.1797 2.01172 21.1797C2.15755 21.1797 2.26823 21.2227 2.34375 21.3086C2.42188 21.3919 2.46094 21.4948 2.46094 21.6172C2.46094 21.737 2.42188 21.8385 2.34375 21.9219C2.26823 22.0052 2.15755 22.0469 2.01172 22.0469C1.86589 22.0469 1.75391 22.0052 1.67578 21.9219C1.60026 21.8385 1.5625 21.737 1.5625 21.6172ZM4.37891 18.6133V22H3.65234V17.7734H4.33984L4.37891 18.6133ZM4.23047 19.7266L3.89453 19.7148C3.89714 19.4258 3.9349 19.1589 4.00781 18.9141C4.08073 18.6667 4.1888 18.4518 4.33203 18.2695C4.47526 18.0872 4.65365 17.9466 4.86719 17.8477C5.08073 17.7461 5.32812 17.6953 5.60938 17.6953C5.80729 17.6953 5.98958 17.724 6.15625 17.7812C6.32292 17.8359 6.46745 17.9232 6.58984 18.043C6.71224 18.1628 6.80729 18.3164 6.875 18.5039C6.94271 18.6914 6.97656 18.918 6.97656 19.1836V22H6.25391V19.2188C6.25391 18.9974 6.21615 18.8203 6.14062 18.6875C6.06771 18.5547 5.96354 18.4583 5.82812 18.3984C5.69271 18.3359 5.53385 18.3047 5.35156 18.3047C5.13802 18.3047 4.95964 18.3424 4.81641 18.418C4.67318 18.4935 4.55859 18.5977 4.47266 18.7305C4.38672 18.8633 4.32422 19.0156 4.28516 19.1875C4.2487 19.3568 4.23047 19.5365 4.23047 19.7266ZM6.96875 19.3281L6.48438 19.4766C6.48698 19.2448 6.52474 19.0221 6.59766 18.8086C6.67318 18.5951 6.78125 18.4049 6.92188 18.2383C7.0651 18.0716 7.24089 17.9401 7.44922 17.8438C7.65755 17.7448 7.89583 17.6953 8.16406 17.6953C8.39062 17.6953 8.59115 17.7253 8.76562 17.7852C8.94271 17.8451 9.09115 17.9375 9.21094 18.0625C9.33333 18.1849 9.42578 18.3424 9.48828 18.5352C9.55078 18.7279 9.58203 18.957 9.58203 19.2227V22H8.85547V19.2148C8.85547 18.9779 8.81771 18.7943 8.74219 18.6641C8.66927 18.5312 8.5651 18.4388 8.42969 18.3867C8.29688 18.332 8.13802 18.3047 7.95312 18.3047C7.79427 18.3047 7.65365 18.332 7.53125 18.3867C7.40885 18.4414 7.30599 18.5169 7.22266 18.6133C7.13932 18.707 7.07552 18.8151 7.03125 18.9375C6.98958 19.0599 6.96875 19.1901 6.96875 19.3281ZM11.3984 18.5859V23.625H10.6719V17.7734H11.3359L11.3984 18.5859ZM14.2461 19.8516V19.9336C14.2461 20.2409 14.2096 20.526 14.1367 20.7891C14.0638 21.0495 13.957 21.276 13.8164 21.4688C13.6784 21.6615 13.5078 21.8112 13.3047 21.918C13.1016 22.0247 12.8685 22.0781 12.6055 22.0781C12.3372 22.0781 12.1003 22.0339 11.8945 21.9453C11.6888 21.8568 11.5143 21.7279 11.3711 21.5586C11.2279 21.3893 11.1133 21.1862 11.0273 20.9492C10.944 20.7122 10.8867 20.4453 10.8555 20.1484V19.7109C10.8867 19.3984 10.9453 19.1185 11.0312 18.8711C11.1172 18.6237 11.2305 18.4128 11.3711 18.2383C11.5143 18.0612 11.6875 17.9271 11.8906 17.8359C12.0938 17.7422 12.3281 17.6953 12.5938 17.6953C12.8594 17.6953 13.0951 17.7474 13.3008 17.8516C13.5065 17.9531 13.6797 18.099 13.8203 18.2891C13.9609 18.4792 14.0664 18.707 14.1367 18.9727C14.2096 19.2357 14.2461 19.5286 14.2461 19.8516ZM13.5195 19.9336V19.8516C13.5195 19.6406 13.4974 19.4427 13.4531 19.2578C13.4089 19.0703 13.3398 18.9062 13.2461 18.7656C13.1549 18.6224 13.0378 18.5104 12.8945 18.4297C12.7513 18.3464 12.5807 18.3047 12.3828 18.3047C12.2005 18.3047 12.0417 18.3359 11.9062 18.3984C11.7734 18.4609 11.6602 18.5456 11.5664 18.6523C11.4727 18.7565 11.3958 18.8763 11.3359 19.0117C11.2786 19.1445 11.2357 19.2826 11.207 19.4258V20.4375C11.2591 20.6198 11.332 20.7917 11.4258 20.9531C11.5195 21.112 11.6445 21.2409 11.8008 21.3398C11.957 21.4362 12.1536 21.4844 12.3906 21.4844C12.5859 21.4844 12.7539 21.444 12.8945 21.3633C13.0378 21.2799 13.1549 21.1667 13.2461 21.0234C13.3398 20.8802 13.4089 20.7161 13.4531 20.5312C13.4974 20.3438 13.5195 20.1445 13.5195 19.9336ZM16.1445 18.8008H16.6602C16.9128 18.8008 17.1211 18.7591 17.2852 18.6758C17.4518 18.5898 17.5755 18.474 17.6562 18.3281C17.7396 18.1797 17.7812 18.013 17.7812 17.8281C17.7812 17.6094 17.7448 17.4258 17.6719 17.2773C17.599 17.1289 17.4896 17.0169 17.3438 16.9414C17.1979 16.8659 17.013 16.8281 16.7891 16.8281C16.5859 16.8281 16.4062 16.8685 16.25 16.9492C16.0964 17.0273 15.9753 17.1393 15.8867 17.2852C15.8008 17.431 15.7578 17.6029 15.7578 17.8008H15.0352C15.0352 17.5117 15.1081 17.2487 15.2539 17.0117C15.3997 16.7747 15.6042 16.5859 15.8672 16.4453C16.1328 16.3047 16.4401 16.2344 16.7891 16.2344C17.1328 16.2344 17.4336 16.2956 17.6914 16.418C17.9492 16.5378 18.1497 16.7174 18.293 16.957C18.4362 17.194 18.5078 17.4896 18.5078 17.8438C18.5078 17.987 18.474 18.1406 18.4062 18.3047C18.3411 18.4661 18.2383 18.6172 18.0977 18.7578C17.9596 18.8984 17.7799 19.0143 17.5586 19.1055C17.3372 19.194 17.0716 19.2383 16.7617 19.2383H16.1445V18.8008ZM16.1445 19.3945V18.9609H16.7617C17.1237 18.9609 17.4232 19.0039 17.6602 19.0898C17.8971 19.1758 18.0833 19.2904 18.2188 19.4336C18.3568 19.5768 18.4531 19.7344 18.5078 19.9062C18.5651 20.0755 18.5938 20.2448 18.5938 20.4141C18.5938 20.6797 18.5482 20.9154 18.457 21.1211C18.3685 21.3268 18.2422 21.5013 18.0781 21.6445C17.9167 21.7878 17.7266 21.8958 17.5078 21.9688C17.2891 22.0417 17.0508 22.0781 16.793 22.0781C16.5456 22.0781 16.3125 22.043 16.0938 21.9727C15.8776 21.9023 15.6862 21.8008 15.5195 21.668C15.3529 21.5326 15.2227 21.3672 15.1289 21.1719C15.0352 20.974 14.9883 20.7487 14.9883 20.4961H15.7109C15.7109 20.694 15.7539 20.8672 15.8398 21.0156C15.9284 21.1641 16.0534 21.2799 16.2148 21.3633C16.3789 21.444 16.5716 21.4844 16.793 21.4844C17.0143 21.4844 17.2044 21.4466 17.3633 21.3711C17.5247 21.293 17.6484 21.1758 17.7344 21.0195C17.8229 20.8633 17.8672 20.6667 17.8672 20.4297C17.8672 20.1927 17.8177 19.9987 17.7188 19.8477C17.6198 19.694 17.4792 19.5807 17.2969 19.5078C17.1172 19.4323 16.9049 19.3945 16.6602 19.3945H16.1445Z" fill="white"/>
<path d="M9.76923 4V8.12444C9.55231 8.04889 9.32154 8 9.07692 8C7.92769 8 7 8.89333 7 10C7 11.1067 7.92769 12 9.07692 12C10.1431 12 11.0154 11.2222 11.1308 10.2222H11.1538V5.33333H13V4H9.76923Z" fill="white"/>
</svg>
