<svg width="20" height="25" viewBox="0 0 20 25" fill="none" xmlns="http://www.w3.org/2000/svg">
<rect width="20" height="25" rx="3" fill="#1F28CF"/>
<path d="M0.5625 21.6211C0.5625 21.4961 0.598958 21.3919 0.671875 21.3086C0.747396 21.2253 0.859375 21.1836 1.00781 21.1836C1.15625 21.1836 1.26823 21.2253 1.34375 21.3086C1.42188 21.3919 1.46094 21.4961 1.46094 21.6211C1.46094 21.7409 1.42188 21.8411 1.34375 21.9219C1.26823 22.0026 1.15625 22.043 1.00781 22.043C0.859375 22.043 0.747396 22.0026 0.671875 21.9219C0.598958 21.8411 0.5625 21.7409 0.5625 21.6211Z" fill="white"/>
<path d="M3.33594 17.7734L3.35547 18.2422C3.66536 17.8776 4.08333 17.6953 4.60938 17.6953C5.20052 17.6953 5.60286 17.9219 5.81641 18.375C5.95703 18.1719 6.13932 18.0078 6.36328 17.8828C6.58984 17.7578 6.85677 17.6953 7.16406 17.6953C8.09115 17.6953 8.5625 18.1862 8.57812 19.168V22H7.85547V19.2109C7.85547 18.9089 7.78646 18.6836 7.64844 18.5352C7.51042 18.3841 7.27865 18.3086 6.95312 18.3086C6.6849 18.3086 6.46224 18.3893 6.28516 18.5508C6.10807 18.7096 6.00521 18.9245 5.97656 19.1953V22H5.25V19.2305C5.25 18.6159 4.94922 18.3086 4.34766 18.3086C3.8737 18.3086 3.54948 18.5104 3.375 18.9141V22H2.65234V17.7734H3.33594Z" fill="white"/>
<path d="M13.2422 19.9336C13.2422 20.5768 13.0951 21.0951 12.8008 21.4883C12.5065 21.8815 12.1081 22.0781 11.6055 22.0781C11.0924 22.0781 10.6888 21.9154 10.3945 21.5898V23.625H9.67188V17.7734H10.332L10.3672 18.2422C10.6615 17.8776 11.0703 17.6953 11.5938 17.6953C12.1016 17.6953 12.5026 17.8867 12.7969 18.2695C13.0938 18.6523 13.2422 19.1849 13.2422 19.8672V19.9336ZM12.5195 19.8516C12.5195 19.375 12.418 18.9987 12.2148 18.7227C12.0117 18.4466 11.7331 18.3086 11.3789 18.3086C10.9414 18.3086 10.6133 18.5026 10.3945 18.8906V20.9102C10.6107 21.2956 10.9414 21.4883 11.3867 21.4883C11.7331 21.4883 12.0078 21.3516 12.2109 21.0781C12.4167 20.8021 12.5195 20.3932 12.5195 19.8516Z" fill="white"/>
<path d="M17.1406 20.0898H17.9297V20.6797H17.1406V22H16.4141V20.6797H13.8242V20.2539L16.3711 16.3125H17.1406V20.0898ZM14.6445 20.0898H16.4141V17.3008L16.3281 17.457L14.6445 20.0898Z" fill="white"/>
<path d="M13.3333 7.625V5.58333C13.3333 5.2625 13.0333 5 12.6667 5H4.66667C4.3 5 4 5.2625 4 5.58333V11.4167C4 11.7375 4.3 12 4.66667 12H12.6667C13.0333 12 13.3333 11.7375 13.3333 11.4167V9.375L16 11.7083V5.29167L13.3333 7.625Z" fill="white"/>
</svg>
