<svg width="20" height="25" viewBox="0 0 20 25" fill="none" xmlns="http://www.w3.org/2000/svg">
<path d="M2.5 0C1.125 0 0.0125003 1.125 0.0125003 2.5L0 22.5C0 23.875 1.1125 25 2.4875 25H17.5C18.875 25 20 23.875 20 22.5V7.5L12.5 0H2.5ZM11.25 8.75V1.875L18.125 8.75H11.25Z" fill="#EB5757"/>
<path d="M3.5625 20.6211C3.5625 20.4961 3.59896 20.3919 3.67188 20.3086C3.7474 20.2253 3.85938 20.1836 4.00781 20.1836C4.15625 20.1836 4.26823 20.2253 4.34375 20.3086C4.42188 20.3919 4.46094 20.4961 4.46094 20.6211C4.46094 20.7409 4.42188 20.8411 4.34375 20.9219C4.26823 21.0026 4.15625 21.043 4.00781 21.043C3.85938 21.043 3.7474 21.0026 3.67188 20.9219C3.59896 20.8411 3.5625 20.7409 3.5625 20.6211Z" fill="white"/>
<path d="M9.22656 18.9336C9.22656 19.5768 9.07943 20.0951 8.78516 20.4883C8.49089 20.8815 8.09245 21.0781 7.58984 21.0781C7.07682 21.0781 6.67318 20.9154 6.37891 20.5898V22.625H5.65625V16.7734H6.31641L6.35156 17.2422C6.64583 16.8776 7.05469 16.6953 7.57812 16.6953C8.08594 16.6953 8.48698 16.8867 8.78125 17.2695C9.07812 17.6523 9.22656 18.1849 9.22656 18.8672V18.9336ZM8.50391 18.8516C8.50391 18.375 8.40234 17.9987 8.19922 17.7227C7.99609 17.4466 7.71745 17.3086 7.36328 17.3086C6.92578 17.3086 6.59766 17.5026 6.37891 17.8906V19.9102C6.59505 20.2956 6.92578 20.4883 7.37109 20.4883C7.71745 20.4883 7.99219 20.3516 8.19531 20.0781C8.40104 19.8021 8.50391 19.3932 8.50391 18.8516Z" fill="white"/>
<path d="M9.97266 18.8516C9.97266 18.2031 10.1263 17.6823 10.4336 17.2891C10.7409 16.8932 11.1432 16.6953 11.6406 16.6953C12.1354 16.6953 12.5273 16.8646 12.8164 17.2031V15H13.5391V21H12.875L12.8398 20.5469C12.5508 20.901 12.1484 21.0781 11.6328 21.0781C11.1432 21.0781 10.7435 20.8776 10.4336 20.4766C10.1263 20.0755 9.97266 19.5521 9.97266 18.9062V18.8516ZM10.6953 18.9336C10.6953 19.4128 10.7943 19.7878 10.9922 20.0586C11.1901 20.3294 11.4635 20.4648 11.8125 20.4648C12.2708 20.4648 12.6055 20.2591 12.8164 19.8477V17.9062C12.6003 17.5078 12.2682 17.3086 11.8203 17.3086C11.4661 17.3086 11.1901 17.4453 10.9922 17.7188C10.7943 17.9922 10.6953 18.3971 10.6953 18.9336Z" fill="white"/>
<path d="M15.0195 21V17.332H14.3516V16.7734H15.0195V16.3398C15.0195 15.8867 15.1406 15.5365 15.3828 15.2891C15.625 15.0417 15.9674 14.918 16.4102 14.918C16.5768 14.918 16.7422 14.9401 16.9062 14.9844L16.8672 15.5703C16.7448 15.5469 16.6146 15.5352 16.4766 15.5352C16.2422 15.5352 16.0612 15.6042 15.9336 15.7422C15.806 15.8776 15.7422 16.0729 15.7422 16.3281V16.7734H16.6445V17.332H15.7422V21H15.0195Z" fill="white"/>
</svg>
