<svg width="20" height="25" viewBox="0 0 20 25" fill="none" xmlns="http://www.w3.org/2000/svg">
<rect width="20" height="25" rx="3" fill="#9B51E0"/>
<path d="M6.5 6.5L2.5 11.5H17.5L14.5 4L10 9L6.5 6.5Z" fill="white"/>
<path d="M1.5625 20.6211C1.5625 20.4961 1.59896 20.3919 1.67188 20.3086C1.7474 20.2253 1.85938 20.1836 2.00781 20.1836C2.15625 20.1836 2.26823 20.2253 2.34375 20.3086C2.42188 20.3919 2.46094 20.4961 2.46094 20.6211C2.46094 20.7409 2.42188 20.8411 2.34375 20.9219C2.26823 21.0026 2.15625 21.043 2.00781 21.043C1.85938 21.043 1.7474 21.0026 1.67188 20.9219C1.59896 20.8411 1.5625 20.7409 1.5625 20.6211Z" fill="white"/>
<path d="M7.22656 18.9336C7.22656 19.5768 7.07943 20.0951 6.78516 20.4883C6.49089 20.8815 6.09245 21.0781 5.58984 21.0781C5.07682 21.0781 4.67318 20.9154 4.37891 20.5898V22.625H3.65625V16.7734H4.31641L4.35156 17.2422C4.64583 16.8776 5.05469 16.6953 5.57812 16.6953C6.08594 16.6953 6.48698 16.8867 6.78125 17.2695C7.07812 17.6523 7.22656 18.1849 7.22656 18.8672V18.9336ZM6.50391 18.8516C6.50391 18.375 6.40234 17.9987 6.19922 17.7227C5.99609 17.4466 5.71745 17.3086 5.36328 17.3086C4.92578 17.3086 4.59766 17.5026 4.37891 17.8906V19.9102C4.59505 20.2956 4.92578 20.4883 5.37109 20.4883C5.71745 20.4883 5.99219 20.3516 6.19531 20.0781C6.40104 19.8021 6.50391 19.3932 6.50391 18.8516Z" fill="white"/>
<path d="M8.83203 16.7734L8.85547 17.3047C9.17839 16.8984 9.60026 16.6953 10.1211 16.6953C11.0143 16.6953 11.4648 17.1992 11.4727 18.207V21H10.75V18.2031C10.7474 17.8984 10.6771 17.6732 10.5391 17.5273C10.4036 17.3815 10.1914 17.3086 9.90234 17.3086C9.66797 17.3086 9.46224 17.3711 9.28516 17.4961C9.10807 17.6211 8.97005 17.7852 8.87109 17.9883V21H8.14844V16.7734H8.83203Z" fill="white"/>
<path d="M12.3906 18.8516C12.3906 18.1927 12.543 17.6693 12.8477 17.2812C13.1523 16.8906 13.556 16.6953 14.0586 16.6953C14.5742 16.6953 14.9766 16.8776 15.2656 17.2422L15.3008 16.7734H15.9609V20.8984C15.9609 21.4453 15.7982 21.8763 15.4727 22.1914C15.1497 22.5065 14.7148 22.6641 14.168 22.6641C13.8633 22.6641 13.5651 22.599 13.2734 22.4688C12.9818 22.3385 12.7591 22.1602 12.6055 21.9336L12.9805 21.5C13.2904 21.8828 13.6693 22.0742 14.1172 22.0742C14.4688 22.0742 14.7422 21.9753 14.9375 21.7773C15.1354 21.5794 15.2344 21.3008 15.2344 20.9414V20.5781C14.9453 20.9115 14.5508 21.0781 14.0508 21.0781C13.556 21.0781 13.1549 20.8789 12.8477 20.4805C12.543 20.082 12.3906 19.5391 12.3906 18.8516ZM13.1172 18.9336C13.1172 19.4102 13.2148 19.7852 13.4102 20.0586C13.6055 20.3294 13.8789 20.4648 14.2305 20.4648C14.6862 20.4648 15.0208 20.2578 15.2344 19.8438V17.9141C15.013 17.5104 14.681 17.3086 14.2383 17.3086C13.8867 17.3086 13.612 17.4453 13.4141 17.7188C13.2161 17.9922 13.1172 18.3971 13.1172 18.9336Z" fill="white"/>
</svg>
