<svg width="20" height="25" viewBox="0 0 20 25" fill="none" xmlns="http://www.w3.org/2000/svg">
<path d="M2.5 0C1.125 0 0.0125003 1.125 0.0125003 2.5L0 22.5C0 23.875 1.1125 25 2.4875 25H17.5C18.875 25 20 23.875 20 22.5V7.5L12.5 0H2.5ZM11.25 8.75V1.875L18.125 8.75H11.25Z" fill="#A92A2A"/>
<path d="M3.5625 20.6211C3.5625 20.4961 3.59896 20.3919 3.67188 20.3086C3.7474 20.2253 3.85938 20.1836 4.00781 20.1836C4.15625 20.1836 4.26823 20.2253 4.34375 20.3086C4.42188 20.3919 4.46094 20.4961 4.46094 20.6211C4.46094 20.7409 4.42188 20.8411 4.34375 20.9219C4.26823 21.0026 4.15625 21.043 4.00781 21.043C3.85938 21.043 3.7474 21.0026 3.67188 20.9219C3.59896 20.8411 3.5625 20.7409 3.5625 20.6211Z" fill="white"/>
<path d="M9.22656 18.9336C9.22656 19.5768 9.07943 20.0951 8.78516 20.4883C8.49089 20.8815 8.09245 21.0781 7.58984 21.0781C7.07682 21.0781 6.67318 20.9154 6.37891 20.5898V22.625H5.65625V16.7734H6.31641L6.35156 17.2422C6.64583 16.8776 7.05469 16.6953 7.57812 16.6953C8.08594 16.6953 8.48698 16.8867 8.78125 17.2695C9.07812 17.6523 9.22656 18.1849 9.22656 18.8672V18.9336ZM8.50391 18.8516C8.50391 18.375 8.40234 17.9987 8.19922 17.7227C7.99609 17.4466 7.71745 17.3086 7.36328 17.3086C6.92578 17.3086 6.59766 17.5026 6.37891 17.8906V19.9102C6.59505 20.2956 6.92578 20.4883 7.37109 20.4883C7.71745 20.4883 7.99219 20.3516 8.19531 20.0781C8.40104 19.8021 8.50391 19.3932 8.50391 18.8516Z" fill="white"/>
<path d="M13.7188 18.9336C13.7188 19.5768 13.5716 20.0951 13.2773 20.4883C12.9831 20.8815 12.5846 21.0781 12.082 21.0781C11.569 21.0781 11.1654 20.9154 10.8711 20.5898V22.625H10.1484V16.7734H10.8086L10.8438 17.2422C11.138 16.8776 11.5469 16.6953 12.0703 16.6953C12.5781 16.6953 12.9792 16.8867 13.2734 17.2695C13.5703 17.6523 13.7188 18.1849 13.7188 18.8672V18.9336ZM12.9961 18.8516C12.9961 18.375 12.8945 17.9987 12.6914 17.7227C12.4883 17.4466 12.2096 17.3086 11.8555 17.3086C11.418 17.3086 11.0898 17.5026 10.8711 17.8906V19.9102C11.0872 20.2956 11.418 20.4883 11.8633 20.4883C12.2096 20.4883 12.4844 20.3516 12.6875 20.0781C12.8932 19.8021 12.9961 19.3932 12.9961 18.8516Z" fill="white"/>
<path d="M15.6211 15.75V16.7734H16.4102V17.332H15.6211V19.9531C15.6211 20.1224 15.6562 20.25 15.7266 20.3359C15.7969 20.4193 15.9167 20.4609 16.0859 20.4609C16.1693 20.4609 16.2839 20.4453 16.4297 20.4141V21C16.2396 21.0521 16.0547 21.0781 15.875 21.0781C15.5521 21.0781 15.3086 20.9805 15.1445 20.7852C14.9805 20.5898 14.8984 20.3125 14.8984 19.9531V17.332H14.1289V16.7734H14.8984V15.75H15.6211Z" fill="white"/>
</svg>
