<svg width="20" height="25" viewBox="0 0 20 25" fill="none" xmlns="http://www.w3.org/2000/svg">
<rect width="20" height="25" rx="3" fill="#27AE60"/>
<path d="M3.5625 20.6211C3.5625 20.4961 3.59896 20.3919 3.67188 20.3086C3.7474 20.2253 3.85938 20.1836 4.00781 20.1836C4.15625 20.1836 4.26823 20.2253 4.34375 20.3086C4.42188 20.3919 4.46094 20.4961 4.46094 20.6211C4.46094 20.7409 4.42188 20.8411 4.34375 20.9219C4.26823 21.0026 4.15625 21.043 4.00781 21.043C3.85938 21.043 3.7474 21.0026 3.67188 20.9219C3.59896 20.8411 3.5625 20.7409 3.5625 20.6211Z" fill="white"/>
<path d="M7.07422 18.3164L8.01172 16.7734H8.85547L7.47266 18.8633L8.89844 21H8.0625L7.08594 19.418L6.10938 21H5.26953L6.69531 18.8633L5.3125 16.7734H6.14844L7.07422 18.3164Z" fill="white"/>
<path d="M10.4102 21H9.6875V15H10.4102V21Z" fill="white"/>
<path d="M14.0312 19.8789C14.0312 19.6836 13.957 19.5326 13.8086 19.4258C13.6628 19.3164 13.4062 19.2227 13.0391 19.1445C12.6745 19.0664 12.3841 18.9727 12.168 18.8633C11.9544 18.7539 11.7956 18.6237 11.6914 18.4727C11.5898 18.3216 11.5391 18.1419 11.5391 17.9336C11.5391 17.5872 11.6849 17.2943 11.9766 17.0547C12.2708 16.8151 12.6458 16.6953 13.1016 16.6953C13.5807 16.6953 13.9688 16.819 14.2656 17.0664C14.5651 17.3138 14.7148 17.6302 14.7148 18.0156H13.9883C13.9883 17.8177 13.9036 17.6471 13.7344 17.5039C13.5677 17.3607 13.3568 17.2891 13.1016 17.2891C12.8385 17.2891 12.6328 17.3464 12.4844 17.4609C12.3359 17.5755 12.2617 17.7253 12.2617 17.9102C12.2617 18.0846 12.3307 18.2161 12.4688 18.3047C12.6068 18.3932 12.8555 18.4779 13.2148 18.5586C13.5768 18.6393 13.8698 18.7357 14.0938 18.8477C14.3177 18.9596 14.4831 19.0951 14.5898 19.2539C14.6992 19.4102 14.7539 19.6016 14.7539 19.8281C14.7539 20.2057 14.6029 20.5091 14.3008 20.7383C13.9987 20.9648 13.6068 21.0781 13.125 21.0781C12.7865 21.0781 12.487 21.0182 12.2266 20.8984C11.9661 20.7786 11.7617 20.612 11.6133 20.3984C11.4674 20.1823 11.3945 19.9492 11.3945 19.6992H12.1172C12.1302 19.9414 12.2266 20.1341 12.4062 20.2773C12.5885 20.418 12.8281 20.4883 13.125 20.4883C13.3984 20.4883 13.6172 20.4336 13.7812 20.3242C13.9479 20.2122 14.0312 20.0638 14.0312 19.8789Z" fill="white"/>
<rect x="3" y="4" width="6" height="2" fill="white"/>
<rect x="3" y="7" width="6" height="2" fill="white"/>
<rect x="3" y="10" width="6" height="2" fill="white"/>
<rect x="11" y="4" width="6" height="2" fill="white"/>
<rect x="11" y="7" width="6" height="2" fill="white"/>
<rect x="11" y="10" width="6" height="2" fill="white"/>
</svg>
