<svg width="20" height="25" viewBox="0 0 20 25" fill="none" xmlns="http://www.w3.org/2000/svg">
<path d="M2.5 0C1.125 0 0.0125003 1.125 0.0125003 2.5L0 22.5C0 23.875 1.1125 25 2.4875 25H17.5C18.875 25 20 23.875 20 22.5V7.5L12.5 0H2.5ZM11.25 8.75V1.875L18.125 8.75H11.25Z" fill="#FFCB4C"/>
<path d="M3.5625 20.6211C3.5625 20.4961 3.59896 20.3919 3.67188 20.3086C3.7474 20.2253 3.85938 20.1836 4.00781 20.1836C4.15625 20.1836 4.26823 20.2253 4.34375 20.3086C4.42188 20.3919 4.46094 20.4961 4.46094 20.6211C4.46094 20.7409 4.42188 20.8411 4.34375 20.9219C4.26823 21.0026 4.15625 21.043 4.00781 21.043C3.85938 21.043 3.7474 21.0026 3.67188 20.9219C3.59896 20.8411 3.5625 20.7409 3.5625 20.6211Z" fill="white"/>
<path d="M6.33594 20.4102H8.80859V21H5.45312V20.4688L7.78516 17.3711H5.48828V16.7734H8.69141V17.2852L6.33594 20.4102Z" fill="white"/>
<path d="M10.4102 21H9.6875V16.7734H10.4102V21ZM9.62891 15.6523C9.62891 15.5352 9.66406 15.4362 9.73438 15.3555C9.80729 15.2747 9.91406 15.2344 10.0547 15.2344C10.1953 15.2344 10.3021 15.2747 10.375 15.3555C10.4479 15.4362 10.4844 15.5352 10.4844 15.6523C10.4844 15.7695 10.4479 15.8672 10.375 15.9453C10.3021 16.0234 10.1953 16.0625 10.0547 16.0625C9.91406 16.0625 9.80729 16.0234 9.73438 15.9453C9.66406 15.8672 9.62891 15.7695 9.62891 15.6523Z" fill="white"/>
<path d="M15.1406 18.9336C15.1406 19.5768 14.9935 20.0951 14.6992 20.4883C14.4049 20.8815 14.0065 21.0781 13.5039 21.0781C12.9909 21.0781 12.5872 20.9154 12.293 20.5898V22.625H11.5703V16.7734H12.2305L12.2656 17.2422C12.5599 16.8776 12.9688 16.6953 13.4922 16.6953C14 16.6953 14.401 16.8867 14.6953 17.2695C14.9922 17.6523 15.1406 18.1849 15.1406 18.8672V18.9336ZM14.418 18.8516C14.418 18.375 14.3164 17.9987 14.1133 17.7227C13.9102 17.4466 13.6315 17.3086 13.2773 17.3086C12.8398 17.3086 12.5117 17.5026 12.293 17.8906V19.9102C12.5091 20.2956 12.8398 20.4883 13.2852 20.4883C13.6315 20.4883 13.9062 20.3516 14.1094 20.0781C14.3151 19.8021 14.418 19.3932 14.418 18.8516Z" fill="white"/>
</svg>
